<?xml version="1.0" encoding="UTF-8"?>
<svg version="1.1" xmlns="http://www.w3.org/2000/svg" width="512" height="512">
<path d="M0 0 C9.9 0 19.8 0 30 0 C30 9.9 30 19.8 30 30 C39.9 30 49.8 30 60 30 C60 20.1 60 10.2 60 0 C69.9 0 79.8 0 90 0 C90 9.9 90 19.8 90 30 C99.9 30 109.8 30 120 30 C120 20.1 120 10.2 120 0 C129.9 0 139.8 0 150 0 C150 9.9 150 19.8 150 30 C159.9 30 169.8 30 180 30 C180 20.1 180 10.2 180 0 C189.9 0 199.8 0 210 0 C210 39.6 210 79.2 210 120 C199.44 120 188.88 120 178 120 C178 139.8 178 159.6 178 180 C188.56 180 199.12 180 210 180 C210 170.1 210 160.2 210 150 C219.9 150 229.8 150 240 150 C240 159.9 240 169.8 240 180 C249.9 180 259.8 180 270 180 C270 170.1 270 160.2 270 150 C279.9 150 289.8 150 300 150 C300 159.9 300 169.8 300 180 C310.56 180 321.12 180 332 180 C332 160.2 332 140.4 332 120 C322.1 120 312.2 120 302 120 C302 80.4 302 40.8 302 0 C311.9 0 321.8 0 332 0 C332 9.9 332 19.8 332 30 C341.9 30 351.8 30 362 30 C362 20.1 362 10.2 362 0 C371.9 0 381.8 0 392 0 C392 9.9 392 19.8 392 30 C401.9 30 411.8 30 422 30 C422 20.1 422 10.2 422 0 C431.9 0 441.8 0 452 0 C452 9.9 452 19.8 452 30 C461.9 30 471.8 30 482 30 C482 20.1 482 10.2 482 0 C491.9 0 501.8 0 512 0 C512 39.6 512 79.2 512 120 C501.44 120 490.88 120 480 120 C480 219.66 480 319.32 480 422 C426.21 422 372.42 422 317 422 C316.67 396.92 316.34 371.84 316 346 C313.58944258 327.92081932 308.97547846 311.30989193 294.2109375 299.55078125 C278.89442748 288.80757546 263.12006871 284.09334284 244.5078125 287.22265625 C228.64118081 290.73875837 215.28102221 299.22595008 206.16796875 312.7109375 C186.7331085 343.88854489 195.4174891 390.27082843 195 422 C140.55 422 86.1 422 30 422 C30 322.34 30 222.68 30 120 C20.1 120 10.2 120 0 120 C0 80.4 0 40.8 0 0 Z M90 150 C90 164.85 90 179.7 90 195 C99.9 195 109.8 195 120 195 C120 180.15 120 165.3 120 150 C110.1 150 100.2 150 90 150 Z M392 150 C392 164.85 392 179.7 392 195 C401.9 195 411.8 195 422 195 C422 180.15 422 165.3 422 150 C412.1 150 402.2 150 392 150 Z M90 240 C90 254.85 90 269.7 90 285 C99.9 285 109.8 285 120 285 C120 270.15 120 255.3 120 240 C110.1 240 100.2 240 90 240 Z M392 240 C392 254.85 392 269.7 392 285 C401.9 285 411.8 285 422 285 C422 270.15 422 255.3 422 240 C412.1 240 402.2 240 392 240 Z " fill="#000000" transform="translate(0,45)"/>
<path d="M0 0 C7.74239409 5.26977322 13.43460314 11.09802965 15.95703125 20.33203125 C16.13126652 23.16496272 16.21071735 25.8945103 16.18408203 28.72412109 C16.18437408 29.54429718 16.18466614 30.36447327 16.18496704 31.20950317 C16.18358044 33.90410159 16.16805096 36.59841899 16.15234375 39.29296875 C16.14861124 41.16769256 16.14576539 43.04241832 16.14376831 44.91714478 C16.13615064 49.83922764 16.1165182 54.76119152 16.09436035 59.68322754 C16.07025441 65.5953882 16.06111206 71.50758875 16.04945374 77.41978455 C16.03009271 86.39061607 15.9917571 95.36118679 15.95703125 104.33203125 C-4.50296875 104.33203125 -24.96296875 104.33203125 -46.04296875 104.33203125 C-46.20340399 83.72947285 -46.20340399 83.72947285 -46.23828125 74.91210938 C-46.26214435 68.90781421 -46.29030091 62.90376426 -46.34472656 56.8996582 C-46.38835434 52.05614989 -46.41214159 47.21290474 -46.42247772 42.36921501 C-46.42983879 40.526121 -46.44421303 38.68304053 -46.46588898 36.84005928 C-46.61177405 23.91618448 -46.00681266 14.89040222 -36.8359375 5.0546875 C-27.60563073 -3.81364645 -11.45080023 -6.19613091 0 0 Z " fill="#000000" transform="translate(271.04296875,362.66796875)"/>
</svg>
