<?xml version="1.0" encoding="UTF-8"?>
<svg version="1.1" xmlns="http://www.w3.org/2000/svg" width="512" height="512">
<path d="M0 0 C3.35807668 0.78861559 6.28486403 1.96337196 9.4375 3.375 C26.18030245 10.37653557 41.92876289 10.60681764 59 5 C61.78961277 3.77062009 64.43670909 2.46473766 67.08203125 0.953125 C69 0 69 0 72 0 C72.0093457 1.24386475 72.01869141 2.48772949 72.02832031 3.76928711 C72.06876517 8.46819424 72.13466282 13.16648333 72.20751953 17.86499023 C72.2354179 19.88281196 72.25678391 21.90073664 72.27099609 23.91870117 C72.39821408 40.97863335 73.80750842 56.69660983 82 72 C82.47953125 72.95003906 82.9590625 73.90007812 83.453125 74.87890625 C93.95693189 94.43332345 111.63919671 106.98606078 132.34838867 114.15991211 C146.61540668 118.05824028 161.23225257 117.67490966 175.90814209 117.73822021 C179.5359097 117.75805644 183.16342246 117.79999238 186.79101562 117.83984375 C193.86058537 117.91436317 200.93012639 117.9635615 208 118 C208.1205934 126.18286113 207.78841878 134.227199 207.08203125 142.37792969 C206.98449554 143.55011047 206.88695984 144.72229126 206.78646851 145.92999268 C206.46652479 149.76103226 206.13957313 153.59143809 205.8125 157.421875 C205.58786244 160.09511838 205.36361795 162.76839185 205.13989258 165.44171143 C204.61264952 171.73152902 204.08035091 178.02090779 203.54617405 184.31013989 C202.93762111 191.47802594 202.3347979 198.64639035 201.73242378 205.81479788 C200.49459734 220.54373373 199.2496796 235.27206497 198 250 C181.17059773 252.26818931 164.31845777 254.2592463 147.44140625 256.13671875 C144.87026806 256.42383332 142.29913681 256.71101005 139.72801208 256.99824524 C134.39102939 257.59387885 129.05385649 258.1877689 123.71655273 258.78051758 C117.56904601 259.46330479 111.42210591 260.1510399 105.27539784 260.84097642 C99.30693462 261.51066073 93.33793883 262.17546928 87.36872673 262.83844948 C84.8492452 263.11891482 82.32992095 263.40079704 79.81076241 263.68414879 C76.30210688 264.07835776 72.79287586 264.46699017 69.28344727 264.85424805 C68.2543071 264.97109451 67.22516693 265.08794098 66.1648407 265.20832825 C65.20262604 265.31337677 64.24041138 265.41842529 63.2490387 265.5266571 C62.42348763 265.61862712 61.59793657 265.71059713 60.74736881 265.80535412 C57.15567758 266.05981865 53.60059997 266.0290092 50 266 C49.99853344 265.05209028 49.99706688 264.10418056 49.99555588 263.12754631 C49.95896815 240.06756184 49.89952808 217.00772268 49.81609726 193.94785881 C49.77628036 182.79629142 49.74390132 171.64479488 49.72900391 160.49316406 C49.71600115 150.77390414 49.68907165 141.05479992 49.64538693 131.33562768 C49.62274122 126.18891447 49.60709119 121.04239352 49.60811615 115.89562607 C49.60886092 111.0512099 49.59098371 106.20721923 49.55883217 101.36291313 C49.55031431 99.58518985 49.54859602 97.80741894 49.55419731 96.02968407 C49.56083051 93.60090585 49.54293439 91.17348416 49.51898193 88.74484253 C49.52674235 88.04249414 49.53450277 87.34014576 49.54249835 86.61651409 C49.45586311 81.64907851 48.10241909 78.83099161 45 75 C41.41654735 72.41658065 38.7545246 71.77565451 34.4375 72.0625 C30.2660673 72.74254869 27.81129821 73.69259034 25 77 C21.12642422 85.58685512 21.55813304 94.31969532 21.56762695 103.54516602 C21.55860052 105.3198769 21.54827115 107.09458156 21.53674316 108.86927795 C21.50925052 113.66612933 21.49989917 118.46286215 21.49388909 123.25978208 C21.48448526 128.28065229 21.45828025 133.30143465 21.43388367 138.32225037 C21.39027023 147.82049558 21.3616916 157.3187237 21.33856028 166.81703848 C21.31148096 177.63450442 21.26757114 188.45188177 21.22227156 199.26928437 C21.12949912 221.51280854 21.05778451 243.75635922 21 266 C11.19787131 265.45002472 1.45490613 264.71984946 -8.3034668 263.6171875 C-9.52672165 263.48209778 -10.7499765 263.34700806 -12.01029968 263.20782471 C-15.30743187 262.84288682 -18.60415193 262.47458879 -21.90071082 262.10453033 C-25.3733702 261.71542729 -28.84648385 261.33041801 -32.3195343 260.94482422 C-38.13511334 260.2985395 -43.95035312 259.64927229 -49.76538086 258.99804688 C-56.4782767 258.24629563 -63.19163964 257.4988358 -69.905276 256.75372887 C-76.39498486 256.03341875 -82.88441282 255.31060988 -89.37369728 254.58648682 C-92.12428727 254.27956889 -94.87496225 253.97342968 -97.62570763 253.66790771 C-101.45738924 253.24214871 -105.28865074 252.81268595 -109.11987305 252.3828125 C-110.254953 252.25706848 -111.39003296 252.13132446 -112.55950928 252.00177002 C-114.12541054 251.82517853 -114.12541054 251.82517853 -115.72294617 251.64501953 C-116.62672343 251.54399933 -117.5305007 251.44297913 -118.46166515 251.33889771 C-121.00381684 250.99949041 -123.49156407 250.53133444 -126 250 C-127.31053 234.70941363 -128.6147176 219.41829527 -129.91151428 204.12653828 C-130.51388823 197.02510154 -131.11827666 189.92384738 -131.72753906 182.82299805 C-132.25904123 176.62836927 -132.78662982 170.43342126 -133.30967045 164.2380721 C-133.58632359 160.96273399 -133.8654159 157.68763454 -134.14804077 154.41280556 C-134.46448931 150.74217031 -134.7740181 147.07100963 -135.08203125 143.3996582 C-135.17553864 142.33365891 -135.26904602 141.26765961 -135.36538696 140.1693573 C-135.9765691 132.76648229 -136.09953607 125.42634096 -136 118 C-134.76937285 117.99365728 -134.76937285 117.99365728 -133.51388454 117.98718643 C-126.55213009 117.95041124 -119.59083049 117.8925727 -112.62941837 117.81609726 C-109.01017287 117.77697539 -105.39115783 117.74461782 -101.77172852 117.72900391 C-74.24686333 117.75000261 -74.24686333 117.75000261 -48.25 109.375 C-47.55447021 109.03509033 -46.85894043 108.69518066 -46.14233398 108.3449707 C-25.38215267 97.79003493 -11.58456139 79.75896028 -4 58 C-0.38852302 45.85401072 -0.45365414 33.68670255 -0.3125 21.125 C-0.27925484 19.06898966 -0.2447588 17.01299914 -0.20898438 14.95703125 C-0.1249159 9.97146525 -0.05772385 4.98593775 0 0 Z " fill="#000000" transform="translate(220,102)"/>
<path d="M0 0 C9.95621448 0.587842 19.83627319 1.44752657 29.74707031 2.58227539 C31.15010161 2.74036464 32.55316879 2.89813569 33.95626831 3.05561829 C36.94370825 3.39150242 39.93091212 3.7293876 42.91794586 4.06886482 C47.65159363 4.60663251 52.38588852 5.13854678 57.12030029 5.66954041 C69.72117203 7.08365947 82.32128221 8.50450796 94.92082477 9.93042034 C103.2248232 10.87019709 111.52919876 11.80647957 119.83433604 12.73614305 C124.53097768 13.26215209 129.22695944 13.79360704 133.92250872 14.32927525 C136.85071138 14.66202682 139.77947298 14.98963736 142.70840836 15.31587029 C144.69259597 15.53838192 146.67610361 15.76693174 148.65957642 15.99572754 C161.11486033 17.37224037 172.67224318 16.88074015 185.10668945 15.43945312 C186.59603455 15.27143294 188.08544181 15.10396305 189.5749054 14.93699646 C192.76015734 14.5787703 195.94494529 14.21674546 199.12941933 13.85166931 C204.16778649 13.27411277 209.20712817 12.70539494 214.24662781 12.13781738 C222.21531586 11.23931713 230.18335197 10.33517915 238.15111274 9.42849588 C252.42994819 7.80366108 266.70946803 6.18489307 280.98983353 4.57356024 C285.99709857 4.00828855 291.00393296 3.43937966 296.01045096 2.86753082 C299.12325856 2.51259258 302.23636924 2.16036954 305.34956169 1.80882454 C306.79042444 1.64552946 308.23115705 1.48108124 309.6717453 1.315382 C311.6414734 1.08896672 313.61171934 0.86707024 315.58198547 0.64538574 C316.68306798 0.5200219 317.78415049 0.39465805 318.91859913 0.2654953 C321.96293498 0.00319354 324.94609266 -0.04739909 328 0 C329.00977711 3.97688211 330.01941727 7.95379896 331.02893829 11.93074608 C331.40127272 13.39752785 331.77362286 14.86430563 332.14598846 16.33107948 C334.38683104 25.15830386 336.62535558 33.98610813 338.85888672 42.81518555 C339.47688125 45.25774972 340.09489649 47.70030866 340.71293259 50.14286232 C341.12367995 51.76621334 341.53438794 53.38957432 341.94505692 55.01294518 C344.16313332 63.77925718 346.38988609 72.54301771 348.65377808 81.29763794 C349.60685796 84.98526072 350.5519173 88.67490764 351.49542236 92.36499023 C351.91036043 93.97807955 352.32949363 95.59009641 352.75311279 97.20092773 C358.00792932 117.19185818 358.00792932 117.19185818 354.1875 124.4375 C349.61363636 129.79545455 349.61363636 129.79545455 346 131 C343.98846894 131.09507219 341.97387541 131.12914972 339.96010017 131.13142776 C338.68925453 131.13526891 337.41840889 131.13911005 336.10905278 131.1430676 C334.69071327 131.14228731 333.27237382 131.14140851 331.85403442 131.14044189 C330.35358061 131.14302475 328.85312749 131.14603768 327.35267532 131.1494453 C323.21893012 131.15752779 319.08520227 131.15930556 314.95145011 131.16004276 C310.49737312 131.16189112 306.04330517 131.1694373 301.5892334 131.17617798 C291.84558566 131.18977015 282.10194203 131.19578724 272.35828638 131.20018864 C266.27746016 131.20294926 260.19663554 131.20718625 254.11581039 131.21169281 C237.28839022 131.22388605 220.46097133 131.23418563 203.63354683 131.2375679 C202.01752585 131.23789725 202.01752585 131.23789725 200.36885797 131.23823325 C199.2888985 131.23845153 198.20893903 131.23866981 197.09625351 131.2388947 C194.90775625 131.23933817 192.71925898 131.23978473 190.53076172 131.24023438 C189.445186 131.2404558 188.35961028 131.24067723 187.24113832 131.24090537 C169.64280275 131.24485513 152.04450853 131.26231432 134.44618894 131.2855939 C116.38960002 131.30928745 98.33303187 131.32176882 80.27642715 131.32293582 C70.13368533 131.32385364 59.99099742 131.32963301 49.84827042 131.34775543 C41.21321488 131.36312942 32.57822991 131.36829286 23.94316329 131.36001733 C19.53548986 131.35610137 15.12795866 131.35708636 10.72030258 131.37107468 C6.68738882 131.38375697 2.65472498 131.38266637 -1.37818815 131.37048396 C-2.83914918 131.36851709 -4.30012757 131.37165082 -5.76106416 131.38032833 C-7.74348668 131.39136023 -9.72599111 131.38217446 -11.70841789 131.3719368 C-13.36174907 131.37283243 -13.36174907 131.37283243 -15.04848087 131.37374616 C-19.68729831 130.78634011 -22.20985179 128.89989102 -25.25 125.4375 C-28.66976347 120.67425803 -28.3752383 116.73679367 -28 111 C-27.38790264 107.2750008 -26.48299417 103.65126858 -25.53735352 99.99829102 C-25.2756134 98.94826401 -25.01387329 97.898237 -24.74420166 96.81639099 C-23.88363307 93.37597201 -23.00647011 89.94002565 -22.12890625 86.50390625 C-21.52495937 84.10424923 -20.92202357 81.70433754 -20.3200531 79.30418396 C-18.73789422 73.00794646 -17.14143572 66.7154194 -15.54211426 60.42352295 C-13.91403912 54.00667526 -12.30072631 47.58611875 -10.68554688 41.16601562 C-8.32809851 31.80753865 -5.96707436 22.44997851 -3.59204102 13.09594727 C-3.34316635 12.11256378 -3.09429169 11.1291803 -2.83787537 10.11599731 C-2.60931854 9.21759628 -2.38076172 8.31919525 -2.14527893 7.39356995 C-1.84800069 6.22255659 -1.84800069 6.22255659 -1.54471684 5.02788639 C-1.08988685 3.33463315 -0.55443456 1.66330369 0 0 Z " fill="#000000" transform="translate(92,381)"/>
<path d="M0 0 C1.06645752 0.01466309 2.13291504 0.02932617 3.23168945 0.04443359 C45.20127773 1.0288551 85.72309691 19.53271908 115.8125 48.4375 C116.30282715 48.89672852 116.7931543 49.35595703 117.29833984 49.82910156 C147.80101961 78.46580123 168.69752108 121.12067398 170.05078125 163.2578125 C170.08102798 165.35930295 170.10565995 167.46088087 170.125 169.5625 C170.15400391 170.62082031 170.18300781 171.67914063 170.21289062 172.76953125 C170.26217869 178.81300618 170.14690379 182.82276164 165.8125 187.4375 C160.14138652 192.57364522 154.38101784 191.99794154 147.00512695 191.93920898 C145.71494156 191.94461197 144.42475616 191.95001495 143.09547424 191.95558167 C139.56610585 191.96951269 136.03722634 191.95838041 132.50788522 191.94187045 C128.80279462 191.92797626 125.09773118 191.93448555 121.3926239 191.93800354 C115.1660479 191.94070392 108.93966483 191.92725086 102.71313477 191.90405273 C95.53768498 191.87750242 88.36255887 191.87567789 81.18707687 191.8874411 C74.26297872 191.89826642 67.33899646 191.89199095 60.41490746 191.87788582 C57.47937432 191.87216116 54.54392698 191.87218088 51.60839272 191.87695122 C47.49436849 191.88266286 43.38081649 191.86328974 39.2668457 191.84155273 C37.46080872 191.84830521 37.46080872 191.84830521 35.61828613 191.85519409 C20.01388491 191.71889507 6.40523076 186.67345069 -4.9375 175.78515625 C-17.48370038 162.69441592 -21.49139031 149.06758596 -21.47802734 131.21020508 C-21.48474457 129.91155014 -21.49146179 128.6128952 -21.49838257 127.27488708 C-21.51593044 123.73792071 -21.52073285 120.20105128 -21.52201414 116.66404557 C-21.52344141 114.4509693 -21.52772159 112.23791725 -21.53300858 110.02484703 C-21.55146378 102.29560163 -21.55968388 94.56642491 -21.55810547 86.8371582 C-21.55690166 79.64390948 -21.5780622 72.45095962 -21.6095928 65.25778657 C-21.635757 59.06731474 -21.64647288 52.87694064 -21.64519465 46.68641394 C-21.64468554 42.99518418 -21.65034161 39.30422107 -21.67155075 35.61304665 C-21.69454051 31.5006933 -21.68541155 27.38901119 -21.67333984 23.27661133 C-21.68457886 22.05932343 -21.69581787 20.84203552 -21.70739746 19.58786011 C-21.65996275 13.23943931 -21.53336909 9.22269027 -17.1875 4.4375 C-11.90132811 -0.42772099 -6.81422665 -0.1495268 0 0 Z " fill="#000000" transform="translate(342.1875,-0.4375)"/>
<path d="M0 0 C1.05832031 -0.02900391 2.11664063 -0.05800781 3.20703125 -0.08789062 C9.25050618 -0.13717869 13.26026164 -0.02190379 17.875 4.3125 C23.01114522 9.98361348 22.43544154 15.74398216 22.37670898 23.11987305 C22.38481346 25.05515114 22.38481346 25.05515114 22.39308167 27.02952576 C22.40701269 30.55889415 22.39588041 34.08777366 22.37937045 37.61711478 C22.36547626 41.32220538 22.37198555 45.02726882 22.37550354 48.7323761 C22.37820392 54.9589521 22.36475086 61.18533517 22.34155273 67.41186523 C22.31500242 74.58731502 22.31317789 81.76244113 22.3249411 88.93792313 C22.33576642 95.86202128 22.32949095 102.78600354 22.31538582 109.71009254 C22.30966116 112.64562568 22.30968088 115.58107302 22.31445122 118.51660728 C22.32016286 122.63063151 22.30078974 126.74418351 22.27905273 130.8581543 C22.28580521 132.66419128 22.28580521 132.66419128 22.29269409 134.50671387 C22.15639507 150.11111509 17.11095069 163.71976924 6.22265625 175.0625 C-6.86808408 187.60870038 -20.49491404 191.61639031 -38.35229492 191.60302734 C-40.30027733 191.61310318 -40.30027733 191.61310318 -42.28761292 191.62338257 C-45.82457929 191.64093044 -49.36144872 191.64573285 -52.89845443 191.64701414 C-55.1115307 191.64844141 -57.32458275 191.65272159 -59.53765297 191.65800858 C-67.26689837 191.67646378 -74.99607509 191.68468388 -82.7253418 191.68310547 C-89.91859052 191.68190166 -97.11154038 191.7030622 -104.30471343 191.7345928 C-110.49518526 191.760757 -116.68555936 191.77147288 -122.87608606 191.77019465 C-126.56731582 191.76968554 -130.25827893 191.77534161 -133.94945335 191.79655075 C-138.0618067 191.81954051 -142.17348881 191.81041155 -146.28588867 191.79833984 C-148.11182053 191.81519836 -148.11182053 191.81519836 -149.97463989 191.83239746 C-156.32306069 191.78496275 -160.33980973 191.65836909 -165.125 187.3125 C-169.99022099 182.02632811 -169.7120268 176.93922665 -169.5625 170.125 C-169.54783691 169.05854248 -169.53317383 167.99208496 -169.51806641 166.89331055 C-168.5336449 124.92372227 -150.02978092 84.40190309 -121.125 54.3125 C-120.66577148 53.82217285 -120.20654297 53.3318457 -119.73339844 52.82666016 C-89.20419288 20.30815797 -44.65417296 0.41092797 0 0 Z " fill="#000000" transform="translate(169.125,-0.3125)"/>
</svg>
