<?xml version="1.0" encoding="UTF-8"?>
<svg version="1.1" xmlns="http://www.w3.org/2000/svg" width="512" height="512">
<path d="M0 0 C1.77411758 0.63030624 1.77411758 0.63030624 3.58407593 1.27334595 C6.71269671 2.38928695 9.83385611 3.52249474 12.95281982 4.66491699 C16.0333286 5.78816996 19.12260106 6.88676911 22.2109375 7.98828125 C28.32465572 10.17504765 34.42421249 12.39870273 40.52062988 14.63317871 C43.65927545 15.7757408 46.80255605 16.90256183 49.95039558 18.0193615 C53.0274489 19.11328825 56.09903429 20.22243072 59.171875 21.328125 C60.29582672 21.72204437 61.41977844 22.11596375 62.57778931 22.52182007 C69.07612022 24.88163993 74.57024843 27.05368914 78.5625 32.984375 C80.27254098 38.23811537 79.96010808 43.42059283 77.5859375 48.3515625 C71.62589885 54.93897364 64.11355906 57.00872155 55.88671875 59.8203125 C54.57616501 60.2750716 53.26588198 60.73061152 51.95585632 61.18688965 C48.51525793 62.3830288 45.07127213 63.56909227 41.62640381 64.75286865 C38.1532723 65.94807748 34.68312974 67.15189298 31.21289062 68.35546875 C27.29339712 69.71480155 23.37347816 71.07277056 19.45124817 72.42419434 C13.07287874 74.62344265 6.72369932 76.8701339 0.41838074 79.27185059 C-1.7890625 79.9765625 -1.7890625 79.9765625 -4.7890625 79.9765625 C-4.91262081 84.29073155 -4.92298399 88.59829395 -4.9140625 92.9140625 C-4.95015625 94.12642578 -4.98625 95.33878906 -5.0234375 96.58789062 C-4.9667408 101.81816081 -4.92416084 105.52473427 -1.62792969 109.74072266 C0.88912342 112.00865868 3.45737552 114.00659255 6.2109375 115.9765625 C7.55714776 117.12834669 8.89326709 118.29223418 10.2109375 119.4765625 C10.8503125 120.0334375 11.4896875 120.5903125 12.1484375 121.1640625 C15.37844422 124.00255325 18.56291315 126.89125018 21.75390625 129.7734375 C23.99201723 131.78026515 26.25141327 133.75833059 28.5234375 135.7265625 C39.6770705 145.50847854 39.6770705 145.50847854 40.64331055 153.59521484 C40.66949463 154.90441895 40.69567871 156.21362305 40.72265625 157.5625 C40.74060745 158.26428375 40.75855865 158.9660675 40.77705383 159.68911743 C40.83082797 161.90987303 40.86494443 164.1304179 40.8984375 166.3515625 C40.93163987 167.86591454 40.96613221 169.38023888 41.00195312 170.89453125 C41.08653331 174.58833924 41.153501 178.28222129 41.2109375 181.9765625 C42.26071777 181.28506104 43.31049805 180.59355957 44.39208984 179.88110352 C48.27889369 177.32123902 52.16664497 174.76281665 56.0546875 172.20483398 C57.73886675 171.09650499 59.42278715 169.98778253 61.10644531 168.87866211 C63.52341208 167.2865671 65.94129945 165.69587906 68.359375 164.10546875 C69.1146347 163.60753311 69.86989441 163.10959747 70.64804077 162.59657288 C71.34861603 162.13617111 72.04919128 161.67576935 72.77099609 161.20141602 C73.38832611 160.7950441 74.00565613 160.38867218 74.64169312 159.96998596 C78.47016348 157.54634034 82.03277116 157.77041346 86.44580078 157.7043457 C87.72441986 157.68003227 87.72441986 157.68003227 89.02886963 157.65522766 C96.93515166 157.51437193 104.84256784 157.43671738 112.74983406 157.37630939 C118.05468978 157.3355011 123.35767724 157.27554503 128.66162109 157.16723633 C133.79943252 157.0626846 138.9355849 157.0087724 144.07439804 156.98885155 C146.02073889 156.97304847 147.96702833 156.94011472 149.91275406 156.88869667 C163.26678328 156.55304839 171.85559518 158.55614933 182.55480576 166.7291584 C185.07462972 168.62709843 187.7159838 170.30697189 190.3671875 172.015625 C192.1500757 173.20849264 193.9313796 174.40373229 195.7109375 175.6015625 C196.64035156 176.22417969 197.56976563 176.84679687 198.52734375 177.48828125 C200.75669696 178.98217773 202.9845589 180.47823828 205.2109375 181.9765625 C205.22495605 180.5853418 205.22495605 180.5853418 205.23925781 179.16601562 C205.28353596 175.6914837 205.34526464 172.21813844 205.41845703 168.74414062 C205.4465069 167.24685803 205.46780024 165.74943175 205.48193359 164.25195312 C205.65502182 146.94313044 205.65502182 146.94313044 212.5078125 139.47265625 C213.31734375 138.79332031 214.126875 138.11398438 214.9609375 137.4140625 C215.84265625 136.65996094 216.724375 135.90585938 217.6328125 135.12890625 C218.90898438 134.06349609 218.90898438 134.06349609 220.2109375 132.9765625 C221.54737843 131.81345695 222.88095877 130.64705191 224.2109375 129.4765625 C224.8503125 128.9196875 225.4896875 128.3628125 226.1484375 127.7890625 C228.52058179 125.70445086 230.86649815 123.59227606 233.2109375 121.4765625 C245.68830829 110.22773283 245.68830829 110.22773283 248.29260254 108.97613525 C251.45962192 105.6749987 250.74729902 101.87407941 250.69335938 97.47558594 C250.69922813 96.01412895 250.69922813 96.01412895 250.70521545 94.52314758 C250.71119897 92.40495196 250.70800516 90.28671535 250.6967926 88.16854095 C250.6795749 84.81399864 250.68701578 81.4603216 250.7010498 78.10577393 C250.73074898 69.77117409 250.71752094 61.43673746 250.70587158 53.10211182 C250.69766422 46.06602125 250.70563051 39.03030737 250.73500061 31.99427032 C250.74209138 28.69318679 250.72541699 25.39276704 250.70788574 22.09173584 C250.71359517 20.05952601 250.72041322 18.02731889 250.72851562 15.99511719 C250.71720108 15.08057266 250.70588654 14.16602814 250.69422913 13.22377014 C250.75052582 7.30404194 251.64090654 3.76508587 255.2109375 -1.0234375 C260.41736326 -5.17872127 265.84813535 -4.63842381 272.2109375 -4.0234375 C275.8779297 -3.23483747 279.3204682 -2.05929854 282.8359375 -0.76171875 C283.81012634 -0.41934174 284.78431519 -0.07696472 285.7880249 0.27578735 C288.93577496 1.38710859 292.07320988 2.52478491 295.2109375 3.6640625 C297.39042433 4.44117461 299.57044321 5.21679605 301.75097656 5.9909668 C306.14187509 7.5534438 310.52854601 9.12702573 314.91210938 10.70996094 C319.81297747 12.47804766 324.72253312 14.21919718 329.63952637 15.94187927 C332.97639153 17.11117834 336.31012949 18.28919138 339.64306641 19.46963501 C341.17635513 20.0116923 342.71052507 20.55126396 344.24560547 21.08822632 C346.35744133 21.82907666 348.46431875 22.58257286 350.5703125 23.33984375 C351.74045898 23.75532471 352.91060547 24.17080566 354.11621094 24.59887695 C357.93343481 26.29819806 361.12163301 28.25964549 363.390625 31.8359375 C365.74012351 38.22446154 365.58793977 42.78442088 362.8359375 49.1640625 C355.96887471 56.52162978 343.8233213 59.02486033 334.53125 62.2421875 C333.14634991 62.72553513 331.76157646 63.20924577 330.37692261 63.69329834 C327.49882086 64.69819701 324.61953168 65.69958685 321.73925781 66.69824219 C318.05550337 67.97566739 314.37445577 69.26069372 310.69420052 70.54816055 C307.84518624 71.54414753 304.9950178 72.53679554 302.1444664 73.52837372 C300.78623974 74.00114553 299.42831728 74.47479226 298.07071304 74.94934845 C296.17735635 75.61047198 294.2823149 76.26676463 292.38720703 76.92285156 C291.31230011 77.29637756 290.23739319 77.66990356 289.12991333 78.05474854 C286.49509213 78.88682633 283.92955145 79.49862396 281.2109375 79.9765625 C279.59485911 96.54070092 279.59485911 96.54070092 285.11328125 111.41796875 C287.98818014 114.26430116 291.16387023 116.63035616 294.53564453 118.85693359 C296.60713196 120.2413465 298.39246296 121.83996265 300.2109375 123.5390625 C302.65092654 125.65688848 305.11888877 127.73960435 307.59375 129.81640625 C308.20863281 130.33581787 308.82351563 130.85522949 309.45703125 131.39038086 C310.67158714 132.41571475 311.89008847 133.43640124 313.11328125 134.45141602 C317.6745205 138.30671854 322.50630638 142.56730026 325.2109375 147.9765625 C325.2109375 164.4765625 325.2109375 180.9765625 325.2109375 197.9765625 C286.2709375 197.9765625 247.3309375 197.9765625 207.2109375 197.9765625 C207.2109375 207.5465625 207.2109375 217.1165625 207.2109375 226.9765625 C246.1509375 226.9765625 285.0909375 226.9765625 325.2109375 226.9765625 C325.2109375 259.6465625 325.2109375 292.3165625 325.2109375 325.9765625 C276.3709375 325.9765625 227.5309375 325.9765625 177.2109375 325.9765625 C176.8809375 320.3665625 176.5509375 314.7565625 176.2109375 308.9765625 C174.19795985 297.95815851 170.55928748 289.52040749 161.2109375 282.9765625 C155.5139585 279.71956869 150.74275588 277.86632005 144.1262207 277.81542969 C142.60862907 277.80101837 142.60862907 277.80101837 141.06037903 277.78631592 C139.97182114 277.78206604 138.88326324 277.77781616 137.76171875 277.7734375 C136.63452927 277.76773743 135.50733978 277.76203735 134.34599304 277.75616455 C131.95959408 277.74671971 129.57318211 277.74018262 127.18676758 277.73632812 C123.55461532 277.72664561 119.92303456 277.69562598 116.29101562 277.6640625 C113.96875335 277.65752975 111.64648704 277.65228035 109.32421875 277.6484375 C108.24578201 277.6360907 107.16734528 277.6237439 106.05622864 277.61102295 C95.79328066 277.64099907 87.79649479 279.88710706 80.2109375 286.9765625 C69.69109494 298.47222756 70.12371167 310.45940157 69.2109375 325.9765625 C20.3709375 325.9765625 -28.4690625 325.9765625 -78.7890625 325.9765625 C-78.7890625 293.3065625 -78.7890625 260.6365625 -78.7890625 226.9765625 C-39.8490625 226.9765625 -0.9090625 226.9765625 39.2109375 226.9765625 C39.2109375 217.4065625 39.2109375 207.8365625 39.2109375 197.9765625 C0.2709375 197.9765625 -38.6690625 197.9765625 -78.7890625 197.9765625 C-78.7890625 146.35148679 -78.7890625 146.35148679 -73.17675781 140.21313477 C-72.40477051 139.51015259 -72.40477051 139.51015259 -71.6171875 138.79296875 C-71.03936523 138.26155273 -70.46154297 137.73013672 -69.86621094 137.18261719 C-69.26325195 136.64024414 -68.66029297 136.09787109 -68.0390625 135.5390625 C-67.09981934 134.68103027 -67.09981934 134.68103027 -66.14160156 133.80566406 C-62.374096 130.37408953 -58.57302997 126.98178496 -54.71484375 123.65234375 C-51.56202601 120.90881675 -48.47479649 118.09257751 -45.37890625 115.28515625 C-42.7890625 112.9765625 -42.7890625 112.9765625 -41.0343895 111.77815151 C-38.28048475 109.78520754 -36.16192413 108.197855 -35.14608002 104.87050056 C-34.90955921 102.32943493 -34.89154815 99.87012188 -34.95019531 97.31860352 C-34.94423843 96.36336792 -34.93828156 95.40813232 -34.93214417 94.4239502 C-34.92006064 91.27523562 -34.95650339 88.12897231 -34.9921875 84.98046875 C-34.99041943 82.78620359 -34.98513901 80.59193869 -34.97650146 78.39768982 C-34.96124657 72.62478443 -34.98508994 66.85275374 -35.01971436 61.07995605 C-35.07017953 51.84435217 -35.06853291 42.6087877 -35.05330658 33.37309074 C-35.05466794 30.15176197 -35.07700237 26.93107647 -35.10186768 23.70985413 C-35.10531294 21.72787573 -35.10817198 19.7458962 -35.11035156 17.76391602 C-35.12278397 16.8727861 -35.13521637 15.98165619 -35.14802551 15.06352234 C-35.12795843 8.15402246 -33.85340408 3.52982708 -29.4140625 -1.9609375 C-21.29390548 -8.04190165 -8.401743 -3.11594933 0 0 Z M91.3984375 223.6640625 C89.52666611 227.30909099 89.09750124 230.899947 89.2109375 234.9765625 C91.03568195 240.34942117 94.15895821 243.45057285 99.2109375 245.9765625 C100.72079053 246.08643524 102.23528436 246.13561458 103.74902344 246.15356445 C104.69050232 246.16639969 105.6319812 246.17923492 106.60198975 246.19245911 C108.13318451 246.20353951 108.13318451 246.20353951 109.6953125 246.21484375 C110.74366272 246.2229155 111.79201294 246.23098724 112.87213135 246.23930359 C115.09475039 246.25315184 117.31739077 246.26387067 119.54003906 246.27172852 C122.93335527 246.28892274 126.32569266 246.33280095 129.71875 246.37695312 C131.877597 246.38708155 134.03645228 246.39559718 136.1953125 246.40234375 C137.20801208 246.41985184 138.22071167 246.43735992 139.26409912 246.45539856 C146.45591918 246.43334591 149.74598499 245.20255277 155.0234375 240.2890625 C156.89520889 236.64403401 157.32437376 233.053178 157.2109375 228.9765625 C155.38619305 223.60370383 152.26291679 220.50255215 147.2109375 217.9765625 C145.70108447 217.86668976 144.18659064 217.81751042 142.67285156 217.79956055 C141.26063324 217.78030769 141.26063324 217.78030769 139.81988525 217.76066589 C138.79908875 217.75327896 137.77829224 217.74589203 136.7265625 217.73828125 C135.67821228 217.7302095 134.62986206 217.72213776 133.54974365 217.71382141 C131.32712461 217.69997316 129.10448423 217.68925433 126.88183594 217.68139648 C123.48851973 217.66420226 120.09618234 217.62032405 116.703125 217.57617188 C114.544278 217.56604345 112.38542272 217.55752782 110.2265625 217.55078125 C109.21386292 217.53327316 108.20116333 217.51576508 107.15777588 217.49772644 C99.96595582 217.51977909 96.67589001 218.75057223 91.3984375 223.6640625 Z " fill="#000000" transform="translate(132.7890625,26.0234375)"/>
<path d="M0 0 C0.71659107 -0.00235223 1.43318213 -0.00470446 2.17148808 -0.00712797 C4.5851991 -0.01381249 6.99885622 -0.01335991 9.41257572 -0.01294994 C11.15567913 -0.01624892 12.89878177 -0.01997456 14.64188343 -0.02409142 C19.4420165 -0.03411592 24.24213707 -0.03782895 29.04227912 -0.04048073 C34.21565367 -0.04438252 39.38901829 -0.05396104 44.56238651 -0.0626936 C57.06218805 -0.0824629 69.5619904 -0.0925254 82.06180367 -0.10142139 C87.94814821 -0.10580405 93.83449185 -0.11117097 99.72083569 -0.11641026 C119.28906505 -0.13342399 138.85729385 -0.14791769 158.42552948 -0.155159 C163.50446861 -0.1570689 168.58340773 -0.15898923 173.66234684 -0.16094494 C175.55586977 -0.16167055 175.55586977 -0.16167055 177.48764569 -0.16241082 C197.93226026 -0.17070931 218.37681628 -0.19604254 238.82140528 -0.22852562 C259.81157621 -0.26160356 280.8017174 -0.27960848 301.79191452 -0.28280324 C313.57699847 -0.28496779 325.36199708 -0.29370836 337.14705563 -0.31926441 C347.18502649 -0.34098152 357.22289128 -0.34901686 367.26088297 -0.33929763 C372.38045285 -0.33475573 377.49980394 -0.33663291 382.61934376 -0.35605907 C387.31204478 -0.37371137 392.00436772 -0.37267619 396.69707287 -0.35716178 C398.38896806 -0.35478884 400.08088957 -0.35909288 401.77274459 -0.37099043 C413.90583632 -0.45098428 425.59965928 0.53736667 435.92235661 7.63422108 C436.76798161 8.20140858 437.61360661 8.76859608 438.48485661 9.35297108 C449.56097787 17.44705969 456.89972543 28.0577404 460.52782536 41.35297108 C462.90780341 58.13063816 460.78422073 73.13368496 450.92235661 87.13422108 C441.29159833 99.82416139 428.5393862 106.59784624 412.92235661 109.13422108 C407.16145922 109.53929549 401.42614528 109.54071618 395.65355778 109.515172 C393.9356831 109.51863479 392.21781064 109.52340351 390.49994278 109.52935374 C385.81129627 109.54180807 381.12283435 109.53571885 376.43418741 109.52639508 C371.36525955 109.519582 366.29636249 109.53009699 361.22744083 109.53833485 C351.31002123 109.55165032 341.39266987 109.54880419 331.47524762 109.54009692 C323.41263886 109.53331218 315.35004919 109.53240708 307.28743839 109.53566837 C305.56388513 109.53635792 305.56388513 109.53635792 303.80551261 109.5370614 C301.47101505 109.53802061 299.1365175 109.53899325 296.80201995 109.53997917 C274.92933322 109.54852667 253.05668425 109.53870899 231.18400371 109.52257808 C212.43042796 109.50917549 193.67690792 109.51150376 174.92333317 109.52533436 C153.1270468 109.54140148 131.3307935 109.54770275 109.53450203 109.53849757 C107.20875963 109.53754195 104.88301723 109.53659884 102.55727482 109.53566837 C101.41306904 109.53520555 100.26886327 109.53474272 99.0899846 109.53426587 C91.04031591 109.53167938 82.99066827 109.53603962 74.94100285 109.54310703 C65.12649844 109.55153481 55.31206599 109.54921502 45.4975698 109.5332648 C40.49342023 109.52539931 35.48939048 109.52226108 30.48524189 109.53221226 C25.89841513 109.54119537 21.3118185 109.53616706 16.72501242 109.5202796 C15.07175091 109.51694706 13.41846968 109.5185912 11.765221 109.52590697 C-6.37991282 109.5999992 -22.31872709 106.51207102 -35.82764339 93.54437733 C-47.96037209 80.54803427 -51.60060174 66.72582227 -51.35108089 49.48968983 C-50.87457596 36.00365663 -44.73211142 25.20719307 -36.07764339 15.13422108 C-28.45342423 8.33644399 -20.82374407 4.16634129 -11.07764339 1.13422108 C-10.50561198 0.95394251 -9.93358056 0.77366395 -9.34421486 0.58792239 C-6.20689959 -0.04007637 -3.19974767 0.00447301 0 0 Z " fill="#000000" transform="translate(51.077643394470215,380.86577892303467)"/>
</svg>
