<?xml version="1.0" encoding="UTF-8"?>
<svg version="1.1" xmlns="http://www.w3.org/2000/svg" width="512" height="512">
<path d="M0 0 C4.44882196 2.14496773 7.28771205 4.88134052 10 9 C10.37720935 10.65728754 10.71739982 12.32398508 11 14 C12.25289891 13.99829126 12.25289891 13.99829126 13.53110892 13.996548 C63.01630267 13.92943957 112.5014916 13.87795337 161.98672173 13.84680401 C167.92612511 13.84305181 173.8655284 13.83916885 179.80493164 13.83520508 C180.98737892 13.83441815 182.16982619 13.83363122 183.38810521 13.83282044 C202.54370846 13.81976022 221.69928475 13.79610298 240.854872 13.76854161 C260.50468975 13.74050456 280.15449336 13.72382734 299.80433029 13.71773452 C311.93304652 13.71361455 324.06168654 13.70059364 336.19037931 13.6762506 C344.5031706 13.66041441 352.8159224 13.65559484 361.12872768 13.65949587 C365.92750361 13.66142071 370.7261462 13.65843329 375.52489853 13.64238358 C379.91762298 13.62779892 384.31012426 13.62703832 388.70285892 13.63730332 C390.29247945 13.63857226 391.88211383 13.63475454 393.47170705 13.62535045 C395.63280599 13.61330813 397.79309974 13.61980143 399.95418644 13.63085651 C401.1544824 13.62971735 402.35477837 13.62857819 403.59144694 13.62740451 C408.3326063 14.14566976 412.31026731 15.5189594 415.9609375 18.71875 C416.42757813 19.3065625 416.89421875 19.894375 417.375 20.5 C418.09816406 21.38171875 418.09816406 21.38171875 418.8359375 22.28125 C421.69746019 26.50631706 421.15490702 31.17095102 421.16113281 36.05786133 C421.16609772 36.98500443 421.17106262 37.91214752 421.17617798 38.86738586 C421.1907999 41.93894184 421.19760177 45.01044617 421.203125 48.08203125 C421.20887656 50.21571352 421.21463429 52.34939577 421.22039795 54.483078 C421.23090811 58.95950563 421.23675064 63.43591529 421.24023438 67.91235352 C421.24571822 73.64571007 421.26974397 79.37882904 421.29820633 85.11211109 C421.31683892 89.52077424 421.32203865 93.92938025 421.32357025 98.33807945 C421.32659604 100.45156846 421.33462208 102.56505648 421.34775543 104.67850685 C421.36482818 107.63717293 421.36293252 110.5952596 421.35644531 113.55395508 C421.3656601 114.42534119 421.37487488 115.29672729 421.3843689 116.19451904 C421.33930927 122.76169502 420.02604184 126.92684091 415.3125 131.75 C407.60909368 137.57097198 397.30268428 136.27702926 388.15612793 136.24050903 C386.53230106 136.24138176 384.90847447 136.24313399 383.28464937 136.24568737 C378.83327098 136.25015163 374.38198915 136.24216987 369.93062305 136.23213124 C365.12635621 136.22348578 360.3220947 136.22641768 355.51782227 136.22793579 C347.19765434 136.22898395 338.87751781 136.22271458 330.55735779 136.21146011 C318.52784075 136.1951987 306.49833888 136.18999645 294.46881205 136.18748413 C274.95120464 136.18310804 255.43361395 136.16980125 235.91601562 136.15087891 C216.95768314 136.1325179 197.99935521 136.11836247 179.04101562 136.10986328 C177.28781491 136.10907511 177.28781491 136.10907511 175.49919599 136.10827102 C169.63560517 136.10566092 163.77201431 136.10313351 157.90842342 136.10064721 C109.27227011 136.07991738 60.63613723 136.04414333 12 136 C12 147.88 12 159.76 12 172 C15.85341064 171.99333817 19.70682129 171.98667633 23.67700195 171.97981262 C59.01325657 171.92011595 94.3495049 171.87532914 129.68579888 171.84680401 C134.31706264 171.84305189 138.94832627 171.83916892 143.57958984 171.83520508 C144.50159132 171.83441815 145.42359281 171.83363122 146.37353373 171.83282044 C161.30259046 171.8197664 176.23161253 171.79611256 191.1606487 171.76854161 C206.47913327 171.74048736 221.79759969 171.7238237 237.11610889 171.71773452 C246.5685018 171.71361812 256.02079674 171.70061658 265.47315949 171.6762506 C271.95493537 171.66039318 278.4366606 171.65559966 284.91845447 171.65949587 C288.65815482 171.6614174 292.39768398 171.65847101 296.1373539 171.64238358 C300.19405741 171.62505997 304.25039679 171.63103995 308.30712891 171.63923645 C309.4861292 171.63049793 310.66512949 171.6217594 311.87985706 171.61275607 C318.50954976 171.64901004 325.26856827 171.68832938 330.51633644 176.34575874 C335.75470174 182.24179114 336.29855693 187.55335049 336.29052734 195.06958008 C336.29724457 195.9742955 336.30396179 196.87901093 336.31088257 197.81114197 C336.32985553 200.79732785 336.33378652 203.78328886 336.3359375 206.76953125 C336.34236627 208.8507242 336.34909469 210.93191624 336.35610962 213.0131073 C336.36808089 217.37505182 336.37179063 221.73691716 336.37060547 226.09887695 C336.37040237 231.67738672 336.39769572 237.25538652 336.43214989 242.83377552 C336.45443179 247.13272922 336.4584426 251.43156049 336.45738602 255.73056602 C336.45974036 257.78658492 336.46855446 259.84260727 336.48405075 261.89856911 C336.50373507 264.78015041 336.49786279 267.66063586 336.48583984 270.54223633 C336.49707886 271.38458832 336.50831787 272.22694031 336.51989746 273.09481812 C336.4592636 278.83876651 335.21574385 283.19585037 332 288 C327.73892394 292.05321869 324.545153 293.12536909 318.75823689 293.12304783 C317.66544432 293.12503888 316.57265175 293.12702993 315.44674426 293.12908131 C314.24150692 293.12616847 313.03626958 293.12325563 311.79450989 293.12025452 C309.87956247 293.12153615 309.87956247 293.12153615 307.92592925 293.12284368 C304.375405 293.12508535 300.82491077 293.12107181 297.27439034 293.11606562 C293.44823145 293.11175663 289.62207433 293.11320787 285.7959137 293.1139679 C279.164499 293.11449284 272.53309413 293.11134907 265.9016819 293.10573006 C256.31371329 293.09761114 246.72574944 293.09499943 237.13777777 293.09374207 C221.58281595 293.09155216 206.02785937 293.08489375 190.47290039 293.07543945 C175.36059597 293.06626374 160.24829297 293.05918368 145.13598633 293.05493164 C144.20483188 293.05466892 143.27367743 293.05440619 142.31430618 293.05413551 C137.64308786 293.05283049 132.97186953 293.05156678 128.30065119 293.05032361 C89.53376362 293.03995292 50.76688256 293.02206151 12 293 C12 305.21 12 317.42 12 330 C16.16399414 329.99000725 16.16399414 329.99000725 20.41210938 329.97981262 C46.54548121 329.91853049 72.67884357 329.87387278 98.81227112 329.84456348 C101.48698941 329.84150395 104.16170762 329.83837999 106.83642578 329.83520508 C107.8336387 329.83402468 107.8336387 329.83402468 108.85099733 329.83282044 C119.60915168 329.81977392 130.36725784 329.79612425 141.12538362 329.76854161 C152.167901 329.74046638 163.21039181 329.72404376 174.25294304 329.71773452 C180.45383302 329.71382328 186.65461377 329.70462945 192.85546875 329.68280983 C198.69289205 329.66243563 204.53016118 329.65616816 210.36761665 329.66067696 C212.50896607 329.65985218 214.65032068 329.6538922 216.79163933 329.64238358 C219.71862198 329.62742506 222.645025 329.63105884 225.57202148 329.63923645 C226.41640022 329.63049793 227.26077896 329.6217594 228.13074493 329.61275607 C234.98342198 329.66439063 240.55638232 330.87511506 245.875 335.5 C251.12692703 341.67873768 251.15029162 346.8369644 251.16113281 354.70239258 C251.16609772 355.56809372 251.17106262 356.43379486 251.17617798 357.32572937 C251.19075065 360.18200483 251.19759329 363.03822476 251.203125 365.89453125 C251.2088803 367.88604228 251.21463798 369.87755331 251.22039795 371.86906433 C251.23089388 376.04267636 251.23674582 380.21626921 251.24023438 384.38989258 C251.24571737 389.72616726 251.2697473 395.06218658 251.29820633 400.39838123 C251.31687006 404.51202628 251.32204029 408.62561025 251.32357025 412.73929405 C251.32658865 414.70599451 251.33458963 416.6726941 251.34775543 418.6393528 C251.36489476 421.39623851 251.36291654 424.15250581 251.35644531 426.90942383 C251.3656601 427.71437286 251.37487488 428.5193219 251.3843689 429.34866333 C251.33571266 435.99771905 249.9658102 441.39819238 245.875 446.8125 C239.46499242 451.68967968 232.33280862 452.44259136 224.48973083 452.36076355 C223.57549239 452.36332682 222.66125394 452.3658901 221.7193113 452.36853105 C218.67914548 452.37344251 215.63948472 452.3570197 212.59936523 452.34057617 C210.41087353 452.33972933 208.22238098 452.34020616 206.03388977 452.34190369 C200.10891672 452.34276283 194.18412665 452.32515001 188.25919604 452.30418181 C182.06123967 452.28540161 175.8632789 452.28366351 169.66529846 452.28010559 C157.93578946 452.2707891 146.20636454 452.24618059 134.47689253 452.21605712 C125.10268245 452.19233643 115.7284813 452.17594573 106.35424805 452.16479492 C105.69349954 452.16400675 105.03275103 452.16321858 104.35197984 452.16240653 C101.03695185 452.1584912 97.72192372 452.1547069 94.40689552 452.15097082 C66.93788218 452.11963075 39.46894936 452.06627208 12 452 C12 460.25 12 468.5 12 477 C15.55136168 476.99585193 15.55136168 476.99585193 19.17446804 476.99162006 C75.35844871 476.92646231 131.54242832 476.87718234 187.72643864 476.84680401 C194.63964731 476.84306202 201.5528559 476.83917235 208.46606445 476.83520508 C209.1540101 476.8348128 209.84195575 476.83442052 210.55074824 476.83401636 C232.84718658 476.82123338 255.14360211 476.79870024 277.44002663 476.77110834 C301.003022 476.74200203 324.56599709 476.72401102 348.12901121 476.71773452 C362.24461938 476.71361536 376.36016203 476.70059878 390.47575004 476.6762506 C400.15142778 476.66040965 409.82707159 476.65559593 419.50276136 476.65949587 C425.08758113 476.66141996 430.67228633 476.65844171 436.2570858 476.64238358 C441.3703362 476.62778855 446.48339492 476.62704517 451.59665412 476.63730332 C453.44606563 476.63857123 455.29548908 476.6347624 457.14487707 476.62535045 C477.81372423 476.52628181 477.81372423 476.52628181 484.9375 482.4375 C489.10104109 487.61038439 489.43618937 491.52182259 489.31640625 498.0859375 C488.74380621 503.35951314 486.21801959 505.92698274 482.375 509.3125 C478.23635597 512.25311549 475.05729913 512.14362586 470.11815262 512.13422108 C468.8764328 512.13774942 468.8764328 512.13774942 467.60962772 512.14134905 C464.80559585 512.14806347 462.00161006 512.14758009 459.1975708 512.14717102 C457.17896794 512.15046812 455.16036575 512.15419336 453.1417644 512.1583125 C447.57109463 512.16835804 442.00043563 512.17205338 436.42975807 512.17470181 C430.43098108 512.17859729 424.43221268 512.18817611 418.43344116 512.19691467 C404.6205242 512.21576469 390.8076066 512.22593816 376.99468044 512.23437535 C370.17158306 512.23857954 363.34848656 512.24380183 356.52538993 512.24905988 C333.17773212 512.26695121 309.83007407 512.28194817 286.48241043 512.28938007 C285.01619841 512.28985483 283.54998639 512.29033072 282.08377437 512.29080774 C280.99309003 512.2911623 280.99309003 512.2911623 279.88037166 512.29152403 C276.19628944 512.29272525 272.51220722 512.29394069 268.828125 512.29516602 C268.09700241 512.29540617 267.36587981 512.29564632 266.61260199 512.29589374 C242.9019962 512.3037886 219.19144041 512.3272237 195.48085645 512.35972196 C170.42368194 512.39400331 145.36653669 512.41372963 120.30933833 512.41702431 C117.5597488 512.41744187 114.81015928 512.41792143 112.06056976 512.41844749 C111.04500047 512.41863228 111.04500047 512.41863228 110.00891462 512.4188208 C99.10324066 512.42115493 88.19762467 512.43682671 77.29197138 512.45728934 C66.33422776 512.47752384 55.37654446 512.48270192 44.41878417 512.47351871 C38.47987412 512.46895915 32.54115267 512.47095618 26.60226822 512.49028015 C21.1690842 512.50780651 15.73622783 512.50700013 10.30304083 512.49138286 C8.33395853 512.48899071 6.36485415 512.49341278 4.39580575 512.50521151 C1.72520559 512.52022708 -0.94421802 512.51073002 -3.61478806 512.49498463 C-4.38458354 512.50520683 -5.15437903 512.51542904 -5.94750166 512.52596101 C-11.113076 512.45919918 -14.01409355 511.24464221 -18 508 C-22.52493675 502.86358531 -23.14696706 499.81200869 -23.13422108 493.11815262 C-23.13657331 492.2903394 -23.13892554 491.46252619 -23.14134905 490.60962772 C-23.14806347 487.80559585 -23.14758009 485.00161006 -23.14717102 482.1975708 C-23.15046812 480.17896794 -23.15419336 478.16036575 -23.1583125 476.1417644 C-23.16835804 470.57109463 -23.17205338 465.00043563 -23.17470181 459.42975807 C-23.17859729 453.43098108 -23.18817611 447.43221268 -23.19691467 441.43344116 C-23.21576469 427.6205242 -23.22593816 413.8076066 -23.23437535 399.99468044 C-23.23857954 393.17158306 -23.24380183 386.34848656 -23.24905988 379.52538993 C-23.26695121 356.17773212 -23.28194817 332.83007407 -23.28938007 309.48241043 C-23.28985483 308.01619841 -23.29033072 306.54998639 -23.29080774 305.08377437 C-23.29104411 304.35665148 -23.29128049 303.62952858 -23.29152403 302.88037166 C-23.29272525 299.19628944 -23.29394069 295.51220722 -23.29516602 291.828125 C-23.29552624 290.73144111 -23.29552624 290.73144111 -23.29589374 289.61260199 C-23.3037886 265.9019962 -23.3272237 242.19144041 -23.35972196 218.48085645 C-23.39400331 193.42368194 -23.41372963 168.36653669 -23.41702431 143.30933833 C-23.41744187 140.5597488 -23.41792143 137.81015928 -23.41844749 135.06056976 C-23.41857069 134.38352357 -23.41869388 133.70647737 -23.4188208 133.00891462 C-23.42115493 122.10324066 -23.43682671 111.19762467 -23.45728934 100.29197138 C-23.47752384 89.33422776 -23.48270192 78.37654446 -23.47351871 67.41878417 C-23.46895915 61.47987412 -23.47095618 55.54115267 -23.49028015 49.60226822 C-23.50780651 44.1690842 -23.50700013 38.73622783 -23.49138286 33.30304083 C-23.48899071 31.33395853 -23.49341278 29.36485415 -23.50521151 27.39580575 C-23.52022708 24.72520559 -23.51073002 22.05578198 -23.49498463 19.38521194 C-23.50520683 18.61541646 -23.51542904 17.84562097 -23.52596101 17.05249834 C-23.45919918 11.886924 -22.24464221 8.98590645 -19 5 C-12.83628287 -0.42994128 -8.09617809 -0.76299061 0 0 Z " fill="#000000" transform="translate(23,0)"/>
</svg>
