<?xml version="1.0" encoding="UTF-8"?>
<svg version="1.1" xmlns="http://www.w3.org/2000/svg" width="512" height="512">
<path d="M0 0 C4.43157571 4.07004177 7.55857483 8.56044202 10.8125 13.6015625 C11.37031662 14.45431259 11.92813324 15.30706268 12.50285339 16.18565369 C13.70892901 18.0301954 14.91242743 19.87642429 16.11361694 21.72415161 C19.3501092 26.70117539 22.60712978 31.66473061 25.86328125 36.62890625 C26.53450516 37.65300095 27.20572906 38.67709564 27.89729309 39.73222351 C34.90224829 50.40441014 42.03354543 60.98983937 49.1875 71.5625 C51.58089254 75.10145203 53.97406289 78.64055428 56.3671875 82.1796875 C57.21852013 83.43837395 57.21852013 83.43837395 58.08705139 84.7224884 C63.36028131 92.5232549 68.59553349 100.34901964 73.8125 108.1875 C74.19425385 108.76106232 74.57600769 109.33462463 74.96932983 109.92556763 C76.98128105 112.94923212 78.99157375 115.97399305 81 119 C79.70280076 121.85779017 78.3363174 123.91008536 76.11083984 126.11621094 C75.5303891 126.69651062 74.94993835 127.2768103 74.35189819 127.87469482 C73.72788116 128.48838928 73.10386414 129.10208374 72.4609375 129.734375 C71.82008209 130.37240051 71.17922668 131.01042603 70.51895142 131.66778564 C68.47562179 133.69994069 66.42544018 135.72502218 64.375 137.75 C62.9865214 139.1284453 61.5984951 140.50734636 60.2109375 141.88671875 C56.81251303 145.26311894 53.40792746 148.63319288 50 152 C52.07097006 160.03577906 54.50085377 167.92324545 57.16918945 175.78051758 C57.59914665 177.05505104 58.0226274 178.33178709 58.43969727 179.6105957 C61.91548958 190.26344413 66.266154 199.76367661 76 206 C89.12024499 211.98635085 101.28192462 212.18088848 115 208 C125.86336412 203.23921454 133.81818965 196.09782009 138.30859375 185.04296875 C141.86513657 174.534088 140.68186345 163.9153664 136 154 C134.39434261 150.85383122 132.77634283 147.72405197 131.07421875 144.62890625 C130 142 130 142 130.16851807 139.95423889 C131 138 131 138 132.81365967 136.92552185 C133.6108844 136.65417923 134.40810913 136.38283661 135.22949219 136.10327148 C136.1414183 135.78380554 137.05334442 135.4643396 137.99290466 135.13519287 C139.00071487 134.80054016 140.00852509 134.46588745 141.046875 134.12109375 C142.10080948 133.75638977 143.15474396 133.39168579 144.24061584 133.01593018 C147.73891647 131.80854266 151.24437488 130.62343427 154.75 129.4375 C158.4264969 128.17364326 162.10096106 126.90398586 165.77546692 125.63435364 C168.3183898 124.75571573 170.86221522 123.87976453 173.40678406 123.00590515 C186.92134839 118.36143014 200.36824809 113.53130352 213.8125 108.6875 C220.97185849 106.11202748 228.1319952 103.53872951 235.29400635 100.97064209 C237.0813496 100.32952063 238.86842379 99.68764851 240.6552124 99.04498291 C243.064592 98.17915442 245.47539753 97.31743476 247.88671875 96.45703125 C248.58819534 96.20410812 249.28967194 95.951185 250.0124054 95.69059753 C254.77087417 94 254.77087417 94 257 94 C256.38064143 99.88461362 255.26646349 105.4301187 253.77294922 111.15039062 C253.43243939 112.47892531 253.43243939 112.47892531 253.08505058 113.83429909 C252.32969847 116.7761996 251.56724356 119.71620928 250.8046875 122.65625 C250.26288787 124.7597345 249.72149533 126.86332389 249.18048096 128.9670105 C247.72122245 134.63556097 246.25557791 140.30244216 244.78855133 145.96898651 C243.5685084 150.6846362 242.35212174 155.4012258 241.13570213 160.1178112 C227.89627217 211.44807533 214.49659084 262.73679181 201 314 C180.04696716 315.99059139 159.09464827 317.31212902 138.0625 318.0625 C137.29362552 318.09072971 136.52475103 318.11895943 135.73257732 318.14804459 C66.44377077 320.62420943 66.44377077 320.62420943 38.82685852 295.21192932 C34.33171355 290.86099761 30.1789763 286.26142585 26.125 281.5 C25.46244831 280.72274189 24.79989662 279.94548378 24.11726761 279.14467239 C16.0466373 269.56002969 8.71205262 259.57698 2 249 C-2.26127111 250.52636423 -3.74403557 253.27387141 -6.11083984 257.01025391 C-21.1627267 279.98348684 -42.29192586 309.3233 -70.70970941 315.41911602 C-92.0765395 319.43479845 -114.31391651 318.70214157 -135.9375 317.9375 C-136.71141555 317.91085549 -137.4853311 317.88421099 -138.28269863 317.85675907 C-158.56833472 317.14586492 -178.7860853 315.85585991 -199 314 C-206.18324572 286.80192942 -213.36172029 259.60287715 -220.37109375 232.359375 C-220.62079107 231.38889473 -220.8704884 230.41841446 -221.1277523 229.4185257 C-222.64190907 223.53150498 -224.15402163 217.64396048 -225.66557693 211.75627136 C-228.07353866 202.37841145 -230.48484393 193.00141192 -232.8984375 183.625 C-233.16077997 182.60573174 -233.42312244 181.58646347 -233.69341469 180.53630829 C-237.14326701 167.13843508 -240.62813062 153.75041071 -244.1640625 140.375 C-244.55215828 138.90537749 -244.94024541 137.4357527 -245.32832336 135.96612549 C-247.07005855 129.37427916 -248.8201048 122.78479284 -250.58178711 116.19824219 C-251.180979 113.93949349 -251.78002893 111.68070712 -252.37890625 109.421875 C-252.64945831 108.4215625 -252.92001038 107.42125 -253.19876099 106.390625 C-253.43940277 105.47893555 -253.68004456 104.56724609 -253.92797852 103.62792969 C-254.13681168 102.84794617 -254.34564484 102.06796265 -254.56080627 101.26434326 C-255.03971501 98.79524204 -255.07604308 96.50909261 -255 94 C-247.39860753 95.95754653 -240.02317792 98.29393158 -232.64453125 100.96484375 C-231.56787704 101.35065109 -230.49122284 101.73645844 -229.38194275 102.13395691 C-225.85738028 103.39790251 -222.33493313 104.66763367 -218.8125 105.9375 C-216.34877942 106.8225111 -213.88490977 107.70710732 -211.42089844 108.59130859 C-207.57670827 109.97084466 -203.73263914 111.35071172 -199.88925171 112.73248291 C-191.25584702 115.83579921 -182.61654859 118.92218714 -173.97267723 121.99622536 C-172.01344432 122.69304783 -170.05434382 123.3902412 -168.09529114 124.08757019 C-167.45871802 124.31415345 -166.82214491 124.54073671 -166.1662817 124.77418613 C-164.8963859 125.22619996 -163.6264916 125.67821802 -162.35659885 126.13024044 C-159.25167747 127.23528373 -156.14640489 128.339325 -153.04067993 129.44210815 C-149.58357675 130.67001196 -146.12760855 131.90106034 -142.671875 133.1328125 C-141.13200172 133.6783503 -141.13200172 133.6783503 -139.5610199 134.23490906 C-138.61888138 134.57133926 -137.67674286 134.90776947 -136.70605469 135.25439453 C-135.88901062 135.54492706 -135.07196655 135.83545959 -134.23016357 136.13479614 C-132.07537441 136.9707581 -130.0475646 137.93064952 -128 139 C-128.63518251 143.99213757 -130.81002935 148.10215767 -133 152.5625 C-133.73254042 154.0621588 -134.46182571 155.56341297 -135.1875 157.06640625 C-135.67283203 158.0555603 -135.67283203 158.0555603 -136.16796875 159.06469727 C-139.55330438 166.93898 -139.09151578 176.83203042 -136.375 184.8125 C-132.00753046 195.16051145 -126.60256312 201.70555598 -116.1875 206.21875 C-103.40202778 211.08278834 -88.44085653 212.33533699 -75.515625 207.25 C-64.13763069 201.59633823 -59.81040614 190.35560467 -55.91207886 178.9234314 C-55.37395044 177.31186947 -54.84015016 175.69885626 -54.31054688 174.08447266 C-53.49259362 171.60252655 -52.64590699 169.13162006 -51.796875 166.66015625 C-51.2690915 165.07870524 -50.74298705 163.49669266 -50.21875 161.9140625 C-49.9647644 161.17862213 -49.71077881 160.44318176 -49.44909668 159.68545532 C-48.11729099 155.84368128 -48.11729099 155.84368128 -48.77072144 151.96975708 C-49.9976851 150.00370932 -51.24594477 148.51271562 -52.88916016 146.88378906 C-53.4696109 146.30348938 -54.05006165 145.7231897 -54.64810181 145.12530518 C-55.27211884 144.51161072 -55.89613586 143.89791626 -56.5390625 143.265625 C-57.17991791 142.62759949 -57.82077332 141.98957397 -58.48104858 141.33221436 C-60.52437821 139.30005931 -62.57455982 137.27497782 -64.625 135.25 C-66.0134786 133.8715547 -67.4015049 132.49265364 -68.7890625 131.11328125 C-72.18748697 127.73688106 -75.59207254 124.36680712 -79 121 C-77.31310319 115.94622565 -74.40624865 111.79922459 -71.48046875 107.3984375 C-70.91845261 106.54577805 -70.35643646 105.69311859 -69.77738953 104.81462097 C-67.91880221 101.99827019 -66.05334684 99.18654558 -64.1875 96.375 C-62.88215455 94.40107248 -61.57698133 92.42703105 -60.27197266 90.45288086 C-50.02334333 74.96915987 -39.64794211 59.57198387 -29.2421875 44.19360352 C-19.34496411 29.5591398 -9.61302053 14.8225867 0 0 Z " fill="#000000" transform="translate(255,54)"/>
<path d="M0 0 C20.62922677 -1.6097163 41.15167271 -3.00707866 61.8125 -3.6875 C62.94295203 -3.7257371 62.94295203 -3.7257371 64.09624147 -3.76474667 C132.02818932 -5.99840026 132.02818932 -5.99840026 157.22874451 16.96913147 C161.30454057 20.89144667 165.04254713 25.05285615 168.6875 29.375 C169.28087284 30.0764426 169.87424568 30.77788521 170.48559952 31.50058365 C190 54.86659389 190 54.86659389 190 61 C127.3 61 64.6 61 0 61 C0 40.87 0 20.74 0 0 Z " fill="#000000" transform="translate(60,397)"/>
<path d="M0 0 C1.12872591 0.03602546 1.12872591 0.03602546 2.28025436 0.0727787 C22.04867524 0.71589708 41.69929283 2.0661648 61.4375 3.5625 C61.4375 23.6925 61.4375 43.8225 61.4375 64.5625 C-0.9325 64.5625 -63.3025 64.5625 -127.5625 64.5625 C-121.59298926 52.62347851 -113.6266098 41.9981533 -105.0625 31.8125 C-104.4995586 31.14105579 -103.9366172 30.46961159 -103.35661697 29.77782059 C-75.5128691 -2.73656022 -39.50452611 -1.29223206 0 0 Z " fill="#000000" transform="translate(389.5625,393.4375)"/>
<path d="M0 0 C3.18259851 1.40509099 5.31348466 3.06921342 7.75878906 5.53173828 C8.47923401 6.25233429 9.19967896 6.9729303 9.94195557 7.71536255 C10.70876648 8.49249603 11.47557739 9.26962952 12.265625 10.0703125 C13.05902283 10.86654022 13.85242065 11.66276794 14.66986084 12.48312378 C17.20130703 15.02575948 19.72570803 17.57526348 22.25 20.125 C23.96568617 21.85071753 25.68182662 23.57598355 27.3984375 25.30078125 C31.60424248 29.52863032 35.80428507 33.76213869 40 38 C38.59490901 41.18259851 36.93078658 43.31348466 34.46826172 45.75878906 C33.74766571 46.47923401 33.0270697 47.19967896 32.28463745 47.94195557 C31.50750397 48.70876648 30.73037048 49.47557739 29.9296875 50.265625 C29.13345978 51.05902283 28.33723206 51.85242065 27.51687622 52.66986084 C24.97424052 55.20130703 22.42473652 57.72570803 19.875 60.25 C18.14928247 61.96568617 16.42401645 63.68182662 14.69921875 65.3984375 C10.47136968 69.60424248 6.23786131 73.80428507 2 78 C-1.18259851 76.59490901 -3.31348466 74.93078658 -5.75878906 72.46826172 C-6.47923401 71.74766571 -7.19967896 71.0270697 -7.94195557 70.28463745 C-8.70876648 69.50750397 -9.47557739 68.73037048 -10.265625 67.9296875 C-11.05902283 67.13345978 -11.85242065 66.33723206 -12.66986084 65.51687622 C-15.20130703 62.97424052 -17.72570803 60.42473652 -20.25 57.875 C-21.96568617 56.14928247 -23.68182662 54.42401645 -25.3984375 52.69921875 C-29.60424248 48.47136968 -33.80428507 44.23786131 -38 40 C-36.59490901 36.81740149 -34.93078658 34.68651534 -32.46826172 32.24121094 C-31.74766571 31.52076599 -31.0270697 30.80032104 -30.28463745 30.05804443 C-29.11893723 28.90782806 -29.11893723 28.90782806 -27.9296875 27.734375 C-27.13345978 26.94097717 -26.33723206 26.14757935 -25.51687622 25.33013916 C-22.97424052 22.79869297 -20.42473652 20.27429197 -17.875 17.75 C-16.14928247 16.03431383 -14.42401645 14.31817338 -12.69921875 12.6015625 C-8.47136968 8.39575752 -4.23786131 4.19571493 0 0 Z " fill="#000000" transform="translate(255,343)"/>
</svg>
