<?xml version="1.0" encoding="UTF-8"?>
<svg version="1.1" xmlns="http://www.w3.org/2000/svg" width="512" height="512">
<path d="M0 0 C0.96529673 -0.00445668 0.96529673 -0.00445668 1.9500944 -0.0090034 C4.11027198 -0.01768719 6.27039411 -0.01919837 8.43058777 -0.02069092 C9.97792682 -0.02531932 11.52526474 -0.03034402 13.07260132 -0.03573608 C17.27930351 -0.04886003 21.48598974 -0.05530504 25.69270921 -0.05974674 C28.32083428 -0.06267751 30.94895499 -0.06678233 33.57707787 -0.07125092 C41.7996938 -0.08492591 50.02229976 -0.09459252 58.24492627 -0.09845281 C67.73705398 -0.10293354 77.22903769 -0.12048213 86.72112161 -0.1494534 C94.05794851 -0.17106925 101.3947349 -0.18115704 108.73159331 -0.18249393 C113.11367844 -0.18354203 117.49562821 -0.18945106 121.87767982 -0.20731354 C126.00056726 -0.22379255 130.12321755 -0.22595061 134.24612617 -0.21717453 C135.75780624 -0.21640406 137.26949905 -0.22074825 138.781147 -0.23063278 C140.84827614 -0.24335487 142.91456569 -0.237475 144.98168945 -0.22705078 C146.13740857 -0.22851734 147.29312769 -0.2299839 148.4838686 -0.2314949 C152.76453123 0.26644413 156.12982842 1.72530451 159.32585144 4.64044189 C162.73085516 9.01342326 163.80432811 11.8499594 163.82176208 17.32020569 C163.82747223 18.39267044 163.83318237 19.46513519 163.83906555 20.57009888 C163.84018341 21.74678131 163.84130127 22.92346375 163.842453 24.13580322 C163.84741791 25.37506058 163.85238281 26.61431793 163.85749817 27.89112854 C163.86960842 31.29208749 163.87706543 34.69298494 163.88150883 38.09395814 C163.88444116 40.21955458 163.88854629 42.34514564 163.893013 44.47073936 C163.90668594 51.12358348 163.91635343 57.77641528 163.92021489 64.42927247 C163.92469448 72.10459871 163.94223848 79.77974676 163.97121549 87.45501882 C163.99284522 93.39058414 164.00291987 99.32609937 164.00425601 105.26170367 C164.00530317 108.80543188 164.01119183 112.34899255 164.02907562 115.89267921 C164.04864595 119.84747671 164.04426215 123.80205223 164.0377655 127.75689697 C164.04698029 128.92750671 164.05619507 130.09811646 164.06568909 131.30419922 C164.03214944 137.81395299 163.73788363 142.70894001 159.21647644 147.78497314 C154.15276211 151.80102244 150.89078695 152.2668839 144.53581238 152.25396729 C143.29482788 152.25389175 142.05384338 152.25381622 140.7752533 152.2537384 C139.42623352 152.2486322 138.07721415 152.24341622 136.72819519 152.23809814 C135.34385733 152.23623214 133.95951881 152.2348091 132.57518005 152.23381042 C128.93870711 152.22999962 125.30227437 152.22018165 121.66581726 152.20910645 C117.95224053 152.1988614 114.23865709 152.19425133 110.52507019 152.18927002 C103.24378474 152.17908925 95.96260954 152.15951396 88.68132019 152.14044189 C88.68132019 171.61044189 88.68132019 191.08044189 88.68132019 211.14044189 C93.76417419 211.11949463 98.8470282 211.09854736 104.08390808 211.07696533 C120.86364698 211.0107339 137.64339098 210.96631809 154.42322636 210.93319321 C164.59843676 210.91257233 174.77352328 210.88446074 184.94865417 210.83868408 C193.81781406 210.79880186 202.68688423 210.77300563 211.5561313 210.76408792 C216.25190013 210.75887553 220.9474123 210.74663433 225.64309883 210.71752167 C230.06473546 210.69033071 234.48601018 210.68200433 238.90772247 210.68801117 C240.52864741 210.68691258 242.14958471 210.67898051 243.77043724 210.66362 C245.98861387 210.64363347 248.20543516 210.64853292 250.42364502 210.65942383 C252.28336236 210.65389307 252.28336236 210.65389307 254.18064976 210.64825058 C259.65286159 211.41763895 263.34588468 213.66461497 267.09043884 217.80282593 C269.18805613 222.20355699 269.21527098 225.72978808 269.13542175 230.54229736 C269.13600586 231.46976273 269.13658997 232.39722809 269.13719177 233.35279846 C269.13441495 236.40479539 269.10334159 239.45580402 269.07194519 242.50762939 C269.06448138 244.62897203 269.05878911 246.75032158 269.05479431 248.87167358 C269.03954909 254.4449174 269.00027648 260.01774178 268.95597839 265.59082031 C268.91500193 271.28178229 268.8967782 276.97281229 268.87663269 282.66387939 C268.83378146 293.82291747 268.76554329 304.98164475 268.68132019 316.14044189 C269.58374451 316.12996826 270.48616882 316.11949463 271.41593933 316.10870361 C274.79112852 316.07444654 278.16613064 316.04945822 281.54142761 316.03057861 C282.9971866 316.0205734 284.45292576 316.00696494 285.90861511 315.98956299 C288.01128559 315.96507145 290.11368843 315.95390396 292.21647644 315.94512939 C293.47854919 315.93465576 294.74062195 315.92418213 296.04093933 315.91339111 C301.40656095 316.24804527 305.3927777 317.02370507 309.49382019 320.57794189 C312.36784381 323.94465527 313.92881227 325.92248915 313.94874573 330.33314514 C313.9572757 331.18684189 313.96580566 332.04053864 313.97459412 332.92010498 C313.97368774 333.85366821 313.97278137 334.78723145 313.97184753 335.74908447 C313.97856476 336.73474899 313.98528198 337.72041351 313.99220276 338.73594666 C314.01123824 342.00233977 314.01510993 345.26852797 314.01725769 348.53497314 C314.02368235 350.80317775 314.03041046 353.07138151 314.03742981 355.33958435 C314.04941689 360.09849977 314.05310922 364.85734252 314.05192566 369.61627197 C314.05172253 375.71292178 314.0790126 381.80910513 314.11347008 387.90564442 C314.13571491 392.59226112 314.13976392 397.27876521 314.13870621 401.96542931 C314.14106627 404.21289361 314.1499125 406.46036083 314.16537094 408.70777321 C314.18497901 411.85338534 314.17921243 414.99798712 314.16716003 418.14361572 C314.17839905 419.07110626 314.18963806 419.9985968 314.20121765 420.95419312 C314.14751807 426.47303333 313.62431108 429.94908034 309.68132019 434.14044189 C304.07872068 438.19391494 298.70913861 438.71720723 291.96403503 438.64215088 C290.55759483 438.65025536 290.55759483 438.65025536 289.1227417 438.65852356 C286.04558555 438.67095817 282.96937451 438.65455721 279.89225769 438.63653564 C277.74330089 438.63669073 275.59434382 438.63818126 273.44538879 438.64094543 C268.9516405 438.64232698 264.45821232 438.62980993 259.96452332 438.60699463 C254.20995185 438.57857674 248.45591059 438.58136002 242.70129967 438.59408474 C238.26773055 438.60104433 233.83428364 438.59324994 229.40073013 438.58082771 C227.27888584 438.57631838 225.15702841 438.57597188 223.03518295 438.57989311 C220.06978762 438.5828089 217.10511962 438.56628152 214.13981628 438.54449463 C212.83049385 438.5512471 212.83049385 438.5512471 211.49472046 438.55813599 C205.79041928 438.48862951 201.37883548 437.65854999 197.03678894 433.60528564 C192.81113554 428.0794312 192.52860123 424.76333707 192.52018738 417.92071533 C192.51522247 416.96445755 192.51025757 416.00819977 192.50514221 415.02296448 C192.49049663 411.84857471 192.48371399 408.67423495 192.47819519 405.49981689 C192.47244495 403.29744464 192.4666872 401.09507241 192.46092224 398.8927002 C192.45040491 394.26906093 192.44456729 389.6454391 192.44108582 385.02178955 C192.43560481 379.09895795 192.41158814 373.17635668 192.38311386 367.25359726 C192.36448197 362.70167369 192.35928154 358.14980547 192.35774994 353.59784698 C192.35472327 351.41458123 192.34669427 349.23131645 192.33356476 347.04808807 C192.31649586 343.99113006 192.31838694 340.93473302 192.32487488 337.87774658 C192.3156601 336.97673721 192.30644531 336.07572784 192.29695129 335.14741516 C192.33078756 330.05383335 192.8537703 326.55373461 195.68132019 322.14044189 C206.81134695 311.31122667 223.26182115 316.14044189 237.68132019 316.14044189 C237.68132019 291.72044189 237.68132019 267.30044189 237.68132019 242.14044189 C188.51132019 242.14044189 139.34132019 242.14044189 88.68132019 242.14044189 C88.68132019 266.56044189 88.68132019 290.98044189 88.68132019 316.14044189 C98.91132019 316.14044189 109.14132019 316.14044189 119.68132019 316.14044189 C129.41960143 319.79229736 129.41960143 319.79229736 132.76571655 326.22518921 C134.04955505 330.31288991 133.96812943 334.14876741 133.95597839 338.40948486 C133.96108932 339.33531372 133.96620026 340.26114258 133.97146606 341.21502686 C133.98534877 344.27096041 133.98440616 347.32666808 133.98210144 350.38262939 C133.98598931 352.51105839 133.99032417 354.6394866 133.99508667 356.76791382 C134.0025462 361.22821569 134.00225967 365.68843841 133.99699402 370.14874268 C133.99120214 375.85730324 134.00812505 381.56553906 134.03133869 387.27404594 C134.0460897 391.6698902 134.04694582 396.06565652 134.04382896 400.46152115 C134.04434156 402.56580371 134.04956778 404.6700907 134.05964088 406.77434921 C134.07201321 409.720649 134.06520844 412.66631971 134.05363464 415.61260986 C134.06127838 416.47725861 134.06892212 417.34190735 134.07679749 418.23275757 C134.02524458 424.18713689 133.2077251 429.20612786 129.18132019 433.88262939 C125.27943875 436.82936277 122.50988568 438.26054352 117.64047241 438.28088379 C116.82043228 438.28659393 116.00039215 438.29230408 115.15550232 438.29818726 C114.25934204 438.29930511 113.36318176 438.30042297 112.43986511 438.30157471 C111.49321487 438.30653961 110.54656464 438.31150452 109.57122803 438.31661987 C106.43474097 438.331243 103.2983045 438.33804385 100.16178894 438.34356689 C97.98326618 438.34931833 95.80474343 438.35507606 93.6262207 438.36083984 C89.05563623 438.37135034 84.48506935 438.37719266 79.91447449 438.38067627 C74.06005177 438.38616032 68.20586171 438.41018638 62.35151196 438.43864822 C57.85020266 438.45727923 53.34894935 438.46248046 48.84760475 438.46401215 C46.68945863 438.46703827 44.53131348 438.47506543 42.37320518 438.48819733 C39.35227679 438.5052668 36.33191602 438.50337519 33.31095886 438.49688721 C32.42087128 438.50610199 31.53078369 438.51531677 30.61372375 438.52481079 C24.84555006 438.48603728 20.50906907 437.65922059 16.03678894 433.67559814 C12.64759815 429.40227063 11.56716099 426.42865481 11.53414917 421.06872559 C11.52341621 419.86618134 11.52341621 419.86618134 11.51246643 418.63934326 C11.50977753 417.76862183 11.50708862 416.89790039 11.50431824 416.00079346 C11.49774704 415.07671692 11.49117584 414.15264038 11.48440552 413.20056152 C11.46470374 410.14406245 11.45301693 407.08761244 11.44303894 404.03106689 C11.43896341 402.98559441 11.43488789 401.94012192 11.43068886 400.86296844 C11.40984158 395.32948505 11.39553395 389.79602636 11.38615417 384.26251221 C11.37509171 378.55509264 11.34068955 372.84806314 11.30098248 367.1407814 C11.27480597 362.74490649 11.26646141 358.3491244 11.2628727 353.95317841 C11.25800957 351.8497021 11.24640344 349.74622986 11.2278347 347.6428299 C11.20342134 344.69413032 11.20441244 341.74643869 11.21134949 338.79766846 C11.1921344 337.50373169 11.1921344 337.50373169 11.17253113 336.18365479 C11.22171813 330.42488746 12.34723323 325.91385277 15.68132019 321.14044189 C27.52303872 311.51904559 40.78746125 316.14044189 56.68132019 316.14044189 C56.68132019 291.72044189 56.68132019 267.30044189 56.68132019 242.14044189 C7.51132019 242.14044189 -41.65867981 242.14044189 -92.31867981 242.14044189 C-92.31867981 266.56044189 -92.31867981 290.98044189 -92.31867981 316.14044189 C-82.08867981 316.14044189 -71.85867981 316.14044189 -61.31867981 316.14044189 C-52.13973244 319.58254716 -52.13973244 319.58254716 -48.31867981 325.14044189 C-47.41563279 327.84958297 -47.18804259 329.43555072 -47.17150879 332.21925354 C-47.16435349 333.04770782 -47.15719818 333.87616211 -47.14982605 334.72972107 C-47.14713715 335.63523209 -47.14444824 336.5407431 -47.14167786 337.47369385 C-47.13510666 338.43009766 -47.12853546 339.38650146 -47.12176514 340.37188721 C-47.10203427 343.5408333 -47.09037058 346.70973203 -47.08039856 349.87872314 C-47.07632303 350.96070669 -47.07224751 352.04269024 -47.06804848 353.15746117 C-47.04718963 358.88315007 -47.03288653 364.60881501 -47.02351379 370.33453369 C-47.01244382 376.24955819 -46.9780363 382.16420707 -46.93834209 388.0790987 C-46.91220531 392.62673139 -46.9038246 397.17427413 -46.90023232 401.72197533 C-46.89535956 403.90246304 -46.88372605 406.08294657 -46.86519432 408.26336098 C-46.84086371 411.31554637 -46.84175691 414.36675379 -46.84870911 417.41900635 C-46.83589905 418.31844467 -46.82308899 419.217883 -46.80989075 420.14457703 C-46.85553626 425.64606984 -47.65308022 428.77612536 -51.31867981 433.14044189 C-56.84335626 438.12612552 -61.2364963 438.29553472 -68.43659973 438.31744385 C-69.37028381 438.32401505 -70.3039679 438.33058624 -71.26594543 438.33735657 C-74.36034729 438.35708967 -77.45470057 438.36875309 -80.54914856 438.37872314 C-81.60657068 438.38279867 -82.66399281 438.3868742 -83.75345802 438.39107323 C-89.35177541 438.41193541 -94.95006828 438.42623572 -100.54841614 438.43560791 C-106.32424382 438.44666416 -112.09968538 438.48105489 -117.8753767 438.52077961 C-122.32186589 438.54695694 -126.7682633 438.55530083 -131.21482277 438.55888939 C-133.34341854 438.56375353 -135.47201026 438.57536254 -137.60053062 438.59392738 C-140.5852582 438.6183389 -143.56898987 438.61734976 -146.55378723 438.6104126 C-147.86410667 438.62962769 -147.86410667 438.62962769 -149.20089722 438.64923096 C-155.02253936 438.60010272 -159.54567911 437.60100123 -164.31867981 434.14044189 C-168.95701011 429.20038493 -168.89264864 424.61786928 -168.83625793 418.19122314 C-168.84326721 417.20512054 -168.85027649 416.21901794 -168.85749817 415.20303345 C-168.87506217 411.95271406 -168.86346062 408.7032697 -168.84992981 405.45294189 C-168.85262517 403.18902418 -168.85650796 400.9251076 -168.86152649 398.66119385 C-168.8674194 393.92011476 -168.85886493 389.17933743 -168.84016418 384.43829346 C-168.81737515 378.3652189 -168.83049928 372.29285147 -168.85445404 366.21980286 C-168.86891738 361.54602748 -168.86430348 356.87241937 -168.85394287 352.19863892 C-168.85127709 349.95956336 -168.8545401 347.72047254 -168.86386108 345.48141479 C-168.87403511 342.35042163 -168.85851262 339.220569 -168.83625793 336.08966064 C-168.84435486 335.16688324 -168.85245178 334.24410583 -168.86079407 333.29336548 C-168.78793475 327.75221918 -168.04518279 324.51989291 -164.31867981 320.14044189 C-158.89149693 316.10484437 -153.64765644 316.01563129 -147.04914856 316.04278564 C-146.3681459 316.04420059 -145.68714325 316.04561554 -144.98550415 316.04707336 C-142.82568334 316.05263891 -140.66596892 316.06518487 -138.50617981 316.07794189 C-137.03547819 316.08296135 -135.56477493 316.08752348 -134.09407043 316.09161377 C-130.50223941 316.10259701 -126.91047001 316.11983768 -123.31867981 316.14044189 C-123.32756226 314.96359833 -123.3364447 313.78675476 -123.34559631 312.57424927 C-123.42670526 301.48019896 -123.48665644 290.38620885 -123.5259285 279.29192924 C-123.54679748 273.5883129 -123.57510304 267.88493604 -123.62043762 262.18145752 C-123.6639192 256.67661309 -123.6878221 251.17199892 -123.69818878 245.666996 C-123.70557594 243.56743877 -123.72000134 241.46789404 -123.74160004 239.36843491 C-123.7706643 236.42611266 -123.77463449 233.48474022 -123.77278137 230.54229736 C-123.78716248 229.67554886 -123.80154358 228.80880035 -123.81636047 227.91578674 C-123.7796627 222.52595272 -123.07607508 219.29284392 -119.31867981 215.14044189 C-114.33262796 211.80856988 -111.1791643 210.64122856 -105.06100464 210.65942383 C-104.36490332 210.65600613 -103.66880199 210.65258843 -102.95160669 210.64906716 C-100.63741829 210.64251972 -98.32441029 210.66441023 -96.0103302 210.68634033 C-94.34429451 210.6874695 -92.67825683 210.6868336 -91.01222229 210.68457031 C-86.50227452 210.68342493 -81.99275425 210.70690565 -77.48290563 210.73486614 C-72.76505415 210.75990917 -68.04719235 210.76222408 -63.32928467 210.76696777 C-54.40105815 210.77938902 -45.47302807 210.81219913 -36.54488796 210.85236573 C-26.37807863 210.89710991 -16.21125981 210.91907714 -6.04437649 210.93914747 C14.86432299 210.98093255 35.77275326 211.0542743 56.68132019 211.14044189 C56.68132019 191.67044189 56.68132019 172.20044189 56.68132019 152.14044189 C52.28690613 152.17524658 47.89249207 152.21005127 43.36491394 152.24591064 C39.84808355 152.26522069 36.33126825 152.28148301 32.81441498 152.29569244 C29.10905211 152.31149585 25.40389709 152.332594 21.69865417 152.36676025 C18.1259971 152.39949558 14.55354086 152.41732453 10.98074532 152.42507362 C9.62165735 152.43059185 8.26257965 152.44136743 6.9035778 152.45763206 C-8.26356809 152.63183853 -8.26356809 152.63183853 -14.06086731 147.64044189 C-17.36961144 143.25920829 -18.44183756 140.3839108 -18.4591217 134.9606781 C-18.46483185 133.88821335 -18.47054199 132.8157486 -18.47642517 131.71078491 C-18.47810196 129.94576126 -18.47810196 129.94576126 -18.47981262 128.14508057 C-18.48477753 126.90582321 -18.48974243 125.66656586 -18.49485779 124.38975525 C-18.50696804 120.9887963 -18.51442505 117.58789885 -18.51886845 114.18692565 C-18.52180078 112.06132921 -18.52590591 109.93573815 -18.53037262 107.81014442 C-18.54404556 101.15730031 -18.55371305 94.50446851 -18.55757451 87.85161132 C-18.5620541 80.17628508 -18.57959809 72.50113703 -18.60857511 64.82586497 C-18.63020484 58.89029965 -18.64027949 52.95478442 -18.64161563 47.01918012 C-18.64266279 43.4754519 -18.64855145 39.93189124 -18.66643524 36.38820457 C-18.68600557 32.43340708 -18.68162177 28.47883156 -18.67512512 24.52398682 C-18.6843399 23.35337708 -18.69355469 22.18276733 -18.70304871 20.97668457 C-18.66955492 14.47583078 -18.40430496 9.52337988 -13.81867981 4.49591064 C-9.01158951 0.75288981 -6.00495329 0.01547107 0 0 Z " fill="#000000" transform="translate(183.3186798095703,36.85955810546875)"/>
</svg>
