<?xml version="1.0" encoding="UTF-8"?>
<svg version="1.1" xmlns="http://www.w3.org/2000/svg" width="512" height="512">
<path d="M0 0 C1.23887938 -0.00935994 1.23887938 -0.00935994 2.50278664 -0.01890898 C5.256547 -0.0348004 8.00941745 -0.02225004 10.76318359 -0.00964355 C12.74298619 -0.01506639 14.72278475 -0.02218995 16.70257568 -0.03088379 C22.07032945 -0.0491008 27.43777529 -0.0420562 32.80553436 -0.02936745 C38.42635419 -0.01923145 44.04714787 -0.0286348 49.66796875 -0.03491211 C59.10665616 -0.04218675 68.54521833 -0.03260557 77.98388672 -0.0135498 C88.89201457 0.00821851 99.79984334 0.00116702 110.70796394 -0.02085543 C120.07801432 -0.03901459 129.44797474 -0.04156519 138.81803703 -0.03110075 C144.41237159 -0.0248687 150.00656562 -0.02402237 155.60089111 -0.0372467 C160.86067943 -0.04881201 166.12008263 -0.04076676 171.37982941 -0.01766968 C173.30873221 -0.01238626 175.23766749 -0.01389006 177.16655731 -0.02272034 C179.80255463 -0.03367397 182.43732289 -0.01991482 185.07324219 0 C185.83404902 -0.00892289 186.59485584 -0.01784577 187.37871742 -0.02703905 C192.83019755 0.05268479 196.02004066 1.43648963 200.53662109 4.50793457 C203.40197059 7.9908782 204.43924111 11.70107187 204.97412109 16.13293457 C204.29356277 21.38295592 202.54358841 24.83532294 198.59912109 28.32043457 C190.56166839 34.06147222 183.27622055 31.50793457 172.53662109 31.50793457 C172.86662109 47.67793457 173.19662109 63.84793457 173.53662109 80.50793457 C176.89849609 82.03418457 180.26037109 83.56043457 183.72412109 85.13293457 C199.95611323 92.74630383 215.14893521 102.54578931 228.53662109 114.50793457 C229.04064453 114.95314453 229.54466797 115.39835449 230.06396484 115.85705566 C268.29493016 149.74463493 292.02554889 194.99597402 299.53662109 245.50793457 C299.53662109 246.16793457 299.53662109 246.82793457 299.53662109 247.50793457 C295.61215138 246.26910014 291.96957756 244.84440561 288.29052734 243.00402832 C287.30044678 242.5150708 286.31036621 242.02611328 285.2902832 241.52233887 C284.23719971 241.00196045 283.18411621 240.48158203 282.09912109 239.94543457 C239.71353857 219.37209875 192.82122892 205.19109065 146.46630859 221.07434082 C128.19044172 227.62872712 110.11959157 237.33393129 96.04931641 250.94689941 C93.66160918 253.19438114 92.16461035 254.47067327 88.83740234 254.66809082 C83.86285451 252.91964028 79.3505125 250.45810921 74.72412109 247.94543457 C72.64592309 246.84155505 70.56648721 245.74000295 68.48583984 244.64074707 C67.46796387 244.10224121 66.45008789 243.56373535 65.40136719 243.00891113 C23.39363337 220.99906389 -25.11053024 205.586165 -72.12280273 219.66491699 C-84.63392313 223.64033787 -98.1387829 229.07766605 -108.60375977 237.16125488 C-110.46337891 238.50793457 -110.46337891 238.50793457 -112.46337891 238.50793457 C-111.09136271 210.61027193 -97.28100568 180.10972695 -81.46337891 157.50793457 C-80.52751953 156.16408691 -80.52751953 156.16408691 -79.57275391 154.79309082 C-62.36124195 130.6359884 -41.83498313 110.51236922 -16.65087891 94.82043457 C-16.0139209 94.41760254 -15.37696289 94.01477051 -14.72070312 93.59973145 C-6.29132372 88.49052437 2.54631586 84.76650021 11.53662109 80.50793457 C11.86662109 64.33793457 12.19662109 48.16793457 12.53662109 31.50793457 C5.93662109 31.50793457 -0.66337891 31.50793457 -7.46337891 31.50793457 C-13.65055298 28.41434753 -17.22347936 26.22763321 -19.46337891 19.50793457 C-19.96314147 14.41035639 -19.1027386 10.94315949 -17.02197266 6.40246582 C-12.41356534 0.8007677 -6.80001714 -0.07975189 0 0 Z M115.53662109 132.50793457 C112.3638205 135.76005518 110.56557984 138.05999748 110.47412109 142.63293457 C110.49474609 143.58168457 110.51537109 144.53043457 110.53662109 145.50793457 C109.64910156 145.6548877 109.64910156 145.6548877 108.74365234 145.80480957 C103.70288946 146.75868966 100.22513833 147.70764408 96.53662109 151.50793457 C93.83960448 155.99339836 93.76146456 160.41069311 94.53662109 165.50793457 C96.16396832 169.05438451 98.32923049 171.58226844 101.41162109 173.94543457 C104.47594139 174.75657818 107.38655834 174.62909083 110.53662109 174.50793457 C110.45412109 175.53918457 110.37162109 176.57043457 110.28662109 177.63293457 C110.63614271 183.05051955 112.64676663 185.84041593 116.66162109 189.38293457 C120.98010752 191.07277708 124.96332629 191.1675444 129.53662109 190.50793457 C133.98661559 188.32339182 136.52992794 186.04939803 138.53662109 181.50793457 C139.25585318 177.81269505 139.25585318 177.81269505 139.53662109 174.50793457 C140.40287109 174.59043457 141.26912109 174.67293457 142.16162109 174.75793457 C146.40948247 174.44327817 148.26872529 173.19487112 151.53662109 170.50793457 C154.22126099 166.99013057 155.36302271 163.9346933 155.53662109 159.50793457 C154.6315012 155.3298365 153.25343612 152.28619088 150.34912109 149.13293457 C146.76838189 147.06406303 143.58464824 146.33126213 139.53662109 145.50793457 C139.46185547 144.91625488 139.38708984 144.3245752 139.31005859 143.71496582 C138.57098224 139.27326186 137.96152749 136.97236714 134.84912109 133.57043457 C127.87840915 129.23017996 122.78453861 128.69471684 115.53662109 132.50793457 Z " fill="#000000" transform="translate(163.46337890625,79.4920654296875)"/>
<path d="M0 0 C0.93440918 0.42877441 1.86881836 0.85754883 2.83154297 1.29931641 C19.99430196 9.22081097 36.63177849 18.0809188 53.28271484 27.00927734 C102.91513951 53.60825669 157.57364425 81.79984311 215.27270508 65.35717773 C228.05162759 61.43309078 240.00579588 55.97440261 251.30493164 48.84472656 C255.82022326 46 255.82022326 46 258 46 C257.51749055 53.54856925 256.05915216 60.54416617 254 67.8125 C253.69167236 68.90127441 253.38334473 69.99004883 253.06567383 71.11181641 C249.92229212 81.82693292 245.82578499 91.9410072 241 102 C240.60941406 102.81694336 240.21882813 103.63388672 239.81640625 104.47558594 C232.65233423 119.23239987 223.79279938 132.84883428 213.01171875 145.23828125 C211.78141584 146.95226878 211.78141584 146.95226878 212.31640625 148.95703125 C212.54199219 149.63121094 212.76757812 150.30539062 213 151 C213.53989681 156.71044701 213.29842268 161.10923534 210 166 C205.90995814 169.69101339 203.53598747 171.12347658 198.08545303 171.13422108 C197.04015246 171.13867892 195.99485188 171.14313676 194.91787553 171.14772969 C193.1818264 171.14745315 193.1818264 171.14745315 191.41070557 171.14717102 C189.57689382 171.15268605 189.57689382 171.15268605 187.70603538 171.1583125 C184.3016521 171.16745179 180.89731709 171.17205175 177.49292612 171.17470181 C173.82545628 171.17860033 170.15800046 171.18817898 166.49053955 171.19691467 C157.62808997 171.21669209 148.76563923 171.22674699 139.90317309 171.23564246 C135.73187283 171.24002334 131.56057385 171.24539068 127.3892746 171.25063133 C113.52657968 171.26764502 99.66388555 171.28213976 85.80118179 171.28938007 C82.20241546 171.29129004 78.60364913 171.29321036 75.00488281 171.29516602 C74.11040325 171.29564976 73.21592368 171.2961335 72.29433867 171.2966319 C57.8005274 171.30493428 43.30679861 171.33027407 28.81302336 171.36274669 C13.93970618 171.39579855 -0.93356905 171.41382714 -15.80692315 171.41702431 C-24.16065855 171.41919117 -32.51427368 171.4279654 -40.86797333 171.45348549 C-47.98167411 171.47516695 -55.09522542 171.48325556 -62.2089555 171.47351871 C-65.83910723 171.4689665 -69.46895042 171.47091312 -73.09906006 171.49028015 C-77.03375929 171.51109105 -80.96803092 171.5009505 -84.902771 171.48774719 C-86.0512142 171.49871644 -87.1996574 171.50968568 -88.38290191 171.52098733 C-94.56964477 171.47070203 -98.30872723 171.17624796 -103 167 C-106.1748133 163.38728142 -107.14107946 160.33006135 -107.125 155.5625 C-107.12886719 154.41974609 -107.12886719 154.41974609 -107.1328125 153.25390625 C-107 151 -107 151 -106.33764648 149.08740234 C-105.78131123 146.97548287 -105.78131123 146.97548287 -106.95288086 145.19165039 C-107.45182861 144.58313232 -107.95077637 143.97461426 -108.46484375 143.34765625 C-109.01350098 142.6609082 -109.5621582 141.97416016 -110.12744141 141.26660156 C-110.72476074 140.53924805 -111.32208008 139.81189453 -111.9375 139.0625 C-117.52742865 131.99099357 -122.60348953 124.8870243 -127 117 C-127.41991211 116.25298828 -127.83982422 115.50597656 -128.27246094 114.73632812 C-143.26066234 87.82351795 -151.96563453 59.67432273 -155 29 C-155.13921875 27.74832031 -155.2784375 26.49664062 -155.421875 25.20703125 C-155.48890625 24.16933594 -155.5559375 23.13164062 -155.625 22.0625 C-155.67914063 21.22847656 -155.73328125 20.39445312 -155.7890625 19.53515625 C-152.20462675 8.01882556 -132.53016793 -1.96687073 -122.5 -7.4375 C-82.30709027 -28.41597348 -39.05817031 -18.06065421 0 0 Z M-39.40234375 50.90625 C-41.34066368 54.60354354 -42 56.7232896 -42 61 C-43.5778125 61.1546875 -43.5778125 61.1546875 -45.1875 61.3125 C-49.68680508 62.1238501 -52.47761815 62.90249612 -55.23046875 66.6953125 C-57.66487403 70.93267323 -58.56294547 74.28797778 -57.60546875 79.11328125 C-56.14765291 83.65602353 -54.05278993 86.32800643 -50.0625 88.875 C-47.10152627 89.96270464 -45.1150771 90.27485974 -42 90 C-41.87625 91.546875 -41.87625 91.546875 -41.75 93.125 C-40.69579223 98.57174014 -38.85661067 101.73412909 -34.25 104.875 C-30.30993459 106.2388688 -27.11908446 106.73319703 -23 106 C-18.19949365 103.59974682 -15.47283451 100.75545099 -13 96 C-12.66405867 92.74822148 -12.66405867 92.74822148 -13 90 C-12.13375 90.0825 -11.2675 90.165 -10.375 90.25 C-4.93041971 89.84669776 -2.11418761 87.29011197 1.375 83.25 C3.37698302 79.24603395 3.71932787 76.38614557 3 72 C1.29680587 67.33862659 -0.72937666 64.562374 -5 62 C-7.70224107 61.4022924 -10.22327615 61.18825246 -13 61 C-13.0825 59.783125 -13.165 58.56625 -13.25 57.3125 C-13.79422814 53.14989014 -14.83935661 50.91111891 -18 48 C-25.51458265 44.03776551 -33.83538366 43.33890592 -39.40234375 50.90625 Z " fill="#000000" transform="translate(203,341)"/>
<path d="M0 0 C1.37045026 -0.00542487 2.74089468 -0.01254958 4.11132812 -0.02124023 C7.82214736 -0.03943355 11.53252041 -0.0324229 15.24334717 -0.01972389 C19.13229549 -0.00957537 23.02120638 -0.0189947 26.91015625 -0.02526855 C33.44017372 -0.03253959 39.97001005 -0.02297163 46.5 -0.00390625 C54.04255185 0.01786159 61.58467116 0.01080982 69.12721252 -0.01121187 C75.61063837 -0.02938147 82.09393423 -0.03191662 88.57737732 -0.0214572 C92.44635098 -0.01523078 96.31512153 -0.01436299 100.18408203 -0.02760315 C103.82206402 -0.03918392 107.45949 -0.03109613 111.09741211 -0.00802612 C113.06428265 -0.00024035 115.03120039 -0.01207597 116.99804688 -0.02453613 C127.74638748 0.07841732 127.74638748 0.07841732 132.5625 4.51757812 C134.82251535 7.16704781 135.3429761 9.05413024 136.5625 12.51757812 C135.36672724 25.67107849 132.32990611 38.60301627 129.5625 51.51757812 C81.3825 51.51757812 33.2025 51.51757812 -16.4375 51.51757812 C-24.61679876 13.34751724 -24.61679876 13.34751724 -20.93359375 6.27148438 C-15.00789214 -0.67535642 -8.63934874 -0.05473112 0 0 Z " fill="#000000" transform="translate(199.4375,-0.517578125)"/>
<path d="M0 0 C-1.36177615 4.08532845 -4.10289249 5.43307478 -7.5625 7.6875 C-8.23289307 8.12666748 -8.90328613 8.56583496 -9.59399414 9.01831055 C-38.11933926 27.32928206 -68.21041822 31.51694188 -101.15234375 24.54443359 C-126.14793985 18.9413705 -149.40512697 6.71595548 -172 -5 C-159.11099243 -18.20781695 -141.87426475 -26.69208799 -124 -31 C-123.12472656 -31.22300781 -122.24945313 -31.44601562 -121.34765625 -31.67578125 C-80.90747591 -40.20477194 -33.49544426 -21.72677465 0 0 Z " fill="#000000" transform="translate(453,355)"/>
<path d="M0 0 C0.72058594 -0.01546875 1.44117188 -0.0309375 2.18359375 -0.046875 C7.69744404 -0.00699182 10.96981029 1.35324745 15.5 4.5 C19.05771512 8.73342505 20.15377727 12.78166152 19.890625 18.2890625 C19.08277504 22.86149325 16.89413805 26.19299558 13.5 29.375 C6.93931274 33.06538658 -2.96009137 32.5622439 -10.12109375 30.88671875 C-14.69533089 28.92386085 -16.98300772 26.14371796 -18.875 21.57421875 C-20.60399466 15.83611771 -19.45944052 11.63371242 -17.05859375 6.39453125 C-12.42812564 0.76601738 -6.85521471 -0.14716024 0 0 Z " fill="#000000" transform="translate(404.5,111.5)"/>
<path d="M0 0 C3.45554769 2.8428114 5.50552281 6.34637405 6.27416992 10.7175293 C6.43006546 13.03236472 6.4409558 15.30180078 6.39453125 17.62109375 C6.41 18.39775391 6.42546875 19.17441406 6.44140625 19.97460938 C6.40536398 25.29534893 5.36930918 28.3267413 1.89453125 32.55859375 C-2.35330966 36.29154485 -6.25580119 36.9114803 -11.75390625 36.83984375 C-15.71562087 36.36601742 -17.89241679 34.9362522 -21.10546875 32.55859375 C-26.04551346 25.97186747 -25.62837221 18.48929626 -25.10546875 10.55859375 C-23.92650622 4.85361406 -20.70160332 1.81418907 -16.10546875 -1.44140625 C-10.1078024 -3.44062837 -5.56770182 -2.55139085 0 0 Z " fill="#000000" transform="translate(458.10546875,154.44140625)"/>
<path d="M0 0 C4.91662662 2.36726467 7.40598188 5.2470192 10 10 C10.53536389 13.01976476 10.51574287 15.94095627 10.4375 19 C10.44458984 19.78117187 10.45167969 20.56234375 10.45898438 21.3671875 C10.40506712 26.29439517 9.70199116 29.7374316 7 34 C2.43416853 38.02228011 -2.0246338 39.25027712 -8 39 C-13.87991159 37.33402505 -16.61793873 34.87414712 -20 30 C-22.1404752 23.76823676 -22.19935281 15.06088202 -19.75 8.9375 C-14.92510164 0.83856347 -9.11917974 -1.15432655 0 0 Z " fill="#000000" transform="translate(454,64)"/>
<path d="M0 0 C0.84691406 -0.02900391 1.69382812 -0.05800781 2.56640625 -0.08789062 C8.13132868 -0.14414567 11.39580821 0.50760625 15.75 4.3125 C18.49931151 7.87778364 19.65151068 11.49644562 20.1875 15.9375 C19.50694168 21.18752134 17.75696732 24.63988837 13.8125 28.125 C7.77221457 32.43948959 0.95326126 31.7874403 -6.25 31.3125 C-11.95497969 30.13353747 -14.99440468 26.90863457 -18.25 22.3125 C-19.926194 17.28391801 -19.85642735 12.97219589 -18.0625 8.0625 C-13.17003155 0.63944443 -8.16248246 0.09150765 0 0 Z " fill="#000000" transform="translate(107.25,47.6875)"/>
<path d="M0 0 C3.70439065 2.46959377 6.93119924 5.32532485 8.43359375 9.671875 C9.73271561 17.22553199 9.94465814 25.26354698 5.8125 31.875 C2.187758 35.65820067 -1.08827178 37.66919331 -6.375 38.1875 C-11.89495957 37.7350443 -16.30225334 35.88187548 -20.125 31.8125 C-22.60255899 27.29459831 -22.43995214 23.07049156 -22.5 18.0625 C-22.52900391 17.26779297 -22.55800781 16.47308594 -22.58789062 15.65429688 C-22.64635263 10.21733059 -21.77992722 7.19921795 -18.1875 2.875 C-12.82692172 -1.83581122 -6.57593834 -2.32091942 0 0 Z " fill="#000000" transform="translate(70.1875,89.125)"/>
<path d="M0 0 C0.76828125 -0.01546875 1.5365625 -0.0309375 2.328125 -0.046875 C7.99582485 -0.00831922 11.40304236 1.14422092 16 4.5 C19.61482377 9.00189708 19.50233846 13.03847697 19.3515625 18.6171875 C18.87547989 22.5210649 17.6969168 24.65730391 15 27.5 C8.54771287 32.17790817 1.72915166 32.04500428 -6 31.5 C-10.34440671 30.61009734 -13.32750802 29.20697875 -16.4375 25.9375 C-19.68378118 20.87330135 -19.44390641 16.42154405 -19 10.5 C-17.50699972 5.66970496 -15.45934793 3.75164846 -11.05297852 1.33569336 C-7.41358211 -0.14577339 -3.88112225 -0.0781434 0 0 Z " fill="#000000" transform="translate(19,47.5)"/>
<path d="M0 0 C0.69931641 -0.020625 1.39863281 -0.04125 2.11914062 -0.0625 C6.91773282 -0.09841089 10.12357284 0.71155292 14.1875 3.25 C18.85927343 8.42683002 19.5353341 11.64353498 19.47265625 18.484375 C18.9764048 23.2973343 16.64935415 25.96534029 13.125 29.0625 C9.03244416 31.57084068 5.01963983 31.46631268 0.375 31.5 C-0.32431641 31.520625 -1.02363281 31.54125 -1.74414062 31.5625 C-6.54273282 31.59841089 -9.74857284 30.78844708 -13.8125 28.25 C-18.52958471 23.02296019 -19.10835013 19.83985553 -19.02734375 12.9453125 C-18.64666849 8.16956832 -16.77149374 6.11309436 -13.3125 3 C-9.01492958 -0.00829929 -5.0630029 0.03672169 0 0 Z " fill="#000000" transform="translate(492.8125,111.75)"/>
<path d="M0 0 C4.54936742 4.20816486 6.24818847 8.19168823 6.73828125 14.265625 C6.89307852 21.14188265 6.85507193 26.73855574 2.5 32.3125 C-1.19103043 36.00353043 -4.37905367 36.64700246 -9.4375 36.9375 C-14.68420006 36.76804136 -17.47882324 35.67664427 -21.1953125 32.015625 C-24.80805761 27.29958648 -24.86559339 23.28976654 -24.875 17.5 C-24.89949219 16.71818359 -24.92398438 15.93636719 -24.94921875 15.13085938 C-24.97810969 9.3671175 -23.81717743 6.0426616 -20.5 1.3125 C-14.58328272 -3.1611155 -6.51283422 -3.1401165 0 0 Z " fill="#000000" transform="translate(72.5,1.6875)"/>
</svg>
