<?xml version="1.0" encoding="UTF-8"?>
<svg version="1.1" xmlns="http://www.w3.org/2000/svg" width="512" height="512">
<path d="M0 0 C16.98152317 12.00383893 27.62519115 28.07969929 31.8125 48.5 C35.79076926 77.34245212 28.42309237 108.10275991 18.34765625 134.9921875 C17.40236997 138.20703209 17.0600997 140.54626988 17.5 143.875 C19.52412458 146.4441479 20.72380714 147.71984364 23.97051907 148.36884212 C25.36659688 148.36463174 25.36659688 148.36463174 26.7908783 148.3603363 C27.86301575 148.36702332 28.9351532 148.37371033 30.03977966 148.38059998 C31.21122025 148.36771439 32.38266083 148.3548288 33.58959961 148.34155273 C34.82751251 148.34385895 36.06542542 148.34616516 37.34085083 148.34854126 C40.03293454 148.35117434 42.72391567 148.34664906 45.41584587 148.33028984 C49.6834843 148.30512889 53.95072255 148.31146906 58.21839905 148.32276917 C68.82598245 148.3459571 79.43345147 148.32766649 90.04101562 148.30126953 C98.27221094 148.2812529 106.50308351 148.27288953 114.73427969 148.29820591 C118.96430127 148.30993523 123.19340084 148.29856438 127.42332542 148.2689532 C130.69753538 148.25240574 133.97163232 148.26845316 137.24584961 148.27905273 C138.39907211 148.26414291 139.55229462 148.24923309 140.74046326 148.23387146 C153.60797187 148.34533162 164.30262335 152.87792919 173.5 161.875 C183.98935867 173.54242919 186.41933336 186.33515682 185.69091797 201.59863281 C184.95293395 210.39781826 181.26797925 216.95419892 175.6953125 223.62109375 C174.19544853 225.84475961 174.19544853 225.84475961 175.12109375 228.3984375 C176.43419478 230.75681159 177.83660615 232.89131317 179.4375 235.0625 C185.96301704 244.81088853 186.69146878 255.42959349 185.5 266.875 C182.75223563 280.36848574 173.49860105 288.5425993 162.5 295.875 C162.78875 296.66261719 163.0775 297.45023437 163.375 298.26171875 C167.26648673 309.6794489 168.37748385 320.57977424 163.5 331.875 C158.79942394 341.33312881 152.91984312 348.06895759 143.5 352.875 C143.70496094 353.46667969 143.90992188 354.05835938 144.12109375 354.66796875 C144.39050781 355.45816406 144.65992188 356.24835938 144.9375 357.0625 C145.20433594 357.83980469 145.47117187 358.61710937 145.74609375 359.41796875 C149.0668534 370.24054811 148.98985639 381.96897334 144.04296875 392.1953125 C137.46661013 403.61653278 128.23364868 411.65049485 115.52723885 415.46763897 C106.70954289 417.51137841 97.71218485 417.16332218 88.71826172 417.1496582 C86.82158712 417.15401107 84.92491428 417.15919613 83.02824402 417.16514587 C77.89774026 417.1784888 72.76731038 417.17911954 67.63679266 417.17658257 C63.34066053 417.17550915 59.04454312 417.18040599 54.74841416 417.185188 C44.60277262 417.19626804 34.4571681 417.19672978 24.31152344 417.19067383 C13.87900861 417.18464185 3.44662892 417.19692883 -6.98586285 417.2182439 C-15.97053764 417.23591933 -24.95516966 417.24185171 -33.93986118 417.23860615 C-39.29353377 417.23680179 -44.64711006 417.23934387 -50.00076675 417.25332069 C-55.04222484 417.26599058 -60.08347417 417.2638692 -65.12492943 417.25090981 C-66.96298356 417.24856386 -68.80105281 417.2512065 -70.63908958 417.25953293 C-86.5472284 417.32633388 -100.95816994 415.84296024 -115.5 408.875 C-114.55815245 405.9791881 -113.60085358 403.12161346 -112.44788361 400.3022995 C-108.85928032 391.10207159 -108.9330034 382.43631416 -108.98242188 372.72070312 C-108.97699156 370.91576068 -108.96986382 369.11082268 -108.96118164 367.30589294 C-108.94305351 362.4360064 -108.94997211 357.56646143 -108.96269798 352.69656944 C-108.97288042 347.58127347 -108.96341782 342.46600522 -108.95715332 337.35070801 C-108.94989212 328.76321199 -108.95942444 320.17585394 -108.97851562 311.58837891 C-109.00028138 301.68395763 -108.99322893 291.77986582 -108.97121 281.87545252 C-108.95301239 273.34597803 -108.95051896 264.81660227 -108.96096468 256.28711462 C-108.96717568 251.20409597 -108.9681015 246.12123177 -108.95481873 241.03822327 C-108.94319717 236.25767283 -108.95140028 231.47754393 -108.97439575 226.69703865 C-108.97964934 224.95083882 -108.97822707 223.20460303 -108.96934509 221.45841789 C-108.91928256 210.60945564 -109.32055567 200.7478048 -115.13957977 191.17882538 C-116.5 188.875 -116.5 188.875 -116.421875 186.8359375 C-115.22701797 184.29433483 -113.64345862 182.58004031 -111.75 180.5 C-92.37596036 157.30012315 -79.57715231 126.70284608 -68.5 98.875 C-68.19707031 98.12879395 -67.89414063 97.38258789 -67.58203125 96.61376953 C-61.14749132 80.66474221 -61.03799075 64.95532392 -61.80078125 48.01953125 C-61.85322998 46.79314941 -61.90567871 45.56676758 -61.9597168 44.30322266 C-62.06751432 41.86352755 -62.18692067 39.42430945 -62.31958008 36.98583984 C-62.90543476 24.02050207 -61.41703283 12.49524319 -52.38671875 2.546875 C-36.84134893 -11.95139738 -17.08044669 -11.44942183 0 0 Z " fill="#000000" transform="translate(294.5,52.125)"/>
<path d="M0 0 C1.35816078 -0.01073296 1.35816078 -0.01073296 2.74375916 -0.02168274 C4.2382534 -0.02571609 4.2382534 -0.02571609 5.76293945 -0.02983093 C6.81030777 -0.03640213 7.85767609 -0.04297333 8.93678284 -0.04974365 C12.41659614 -0.06951541 15.89636612 -0.0811506 19.3762207 -0.09111023 C20.56445435 -0.09518576 21.75268799 -0.09926128 22.97692871 -0.10346031 C29.27131986 -0.12434194 35.5656891 -0.13863212 41.86010742 -0.147995 C48.35206893 -0.1590373 54.84368559 -0.19340644 61.33552551 -0.23316669 C66.33368551 -0.25936417 71.33176396 -0.26768986 76.32998657 -0.27127647 C78.72207964 -0.27613774 81.11416918 -0.28773851 83.50619507 -0.30631447 C86.86418567 -0.33076159 90.22129264 -0.32972974 93.5793457 -0.32279968 C94.55948135 -0.33560974 95.539617 -0.3484198 96.54945374 -0.36161804 C107.15412202 -0.28226788 114.84854685 3.3787512 122.4855957 10.63154602 C128.33142686 17.30657309 130.8382059 24.64553847 130.83589172 33.38803101 C130.83956841 34.1308287 130.8432451 34.8736264 130.8470332 35.63893312 C130.8580719 38.13525701 130.86191424 40.63153927 130.86572266 43.12788391 C130.87198731 44.91503532 130.87863412 46.70218543 130.88563538 48.48933411 C130.90668295 54.36615592 130.91704037 60.24297802 130.92700195 66.11982727 C130.93104965 68.14379325 130.93516657 70.16775908 130.93935204 72.19172478 C130.95840748 81.70326806 130.97263617 91.21480358 130.980964 100.72636229 C130.99072954 111.69853171 131.01702976 122.67049903 131.0574649 133.64259726 C131.08765596 142.12682198 131.10243584 150.61098889 131.10574502 159.09526628 C131.10809265 164.16050616 131.11701547 169.22553021 131.14220619 174.29071236 C131.16554333 179.06041653 131.16969748 183.82976366 131.15944481 188.59951019 C131.15895066 190.34494911 131.16523522 192.09040593 131.17900085 193.83579063 C131.27953527 207.34483274 129.78638324 216.8892819 120.10668945 226.94795227 C110.79369017 235.4184185 99.60160005 236.45617356 87.44726562 236.42182922 C86.4896936 236.42694016 85.53212158 236.43205109 84.54553223 236.43731689 C81.42001889 236.45107608 78.29472922 236.45026769 75.16918945 236.44795227 C72.97967956 236.45184437 70.79017042 236.45618009 68.60066223 236.4609375 C64.03078756 236.46836848 59.46099022 236.46812943 54.89111328 236.46284485 C49.03914225 236.457029 43.18748554 236.47404738 37.33556652 236.49718952 C32.82225195 236.51191993 28.30901344 236.51279993 23.79567909 236.50967979 C21.63753953 236.51019252 19.47939565 236.51542104 17.32127953 236.52549171 C14.30837825 236.5378365 11.29609459 236.53107795 8.28320312 236.51948547 C6.95289818 236.53095108 6.95289818 236.53095108 5.59571838 236.54264832 C0.62114927 236.50037161 -3.157498 236.19296609 -7.3112793 233.14717102 C-9.54824429 228.14244325 -9.59643072 223.52850533 -9.57197571 218.15866089 C-9.57580126 217.26417533 -9.5796268 216.36968978 -9.58356827 215.4480986 C-9.59387136 212.45653464 -9.58991123 209.46516357 -9.5859375 206.47358704 C-9.59028544 204.32644982 -9.59546886 202.17931415 -9.60142517 200.03218079 C-9.61481706 194.20372208 -9.61539365 188.37532821 -9.61286187 182.54685712 C-9.61179237 177.68093784 -9.61667497 172.81503169 -9.62146729 167.94911522 C-9.63256298 156.47012058 -9.63299942 144.99115866 -9.62695312 133.51216125 C-9.62091131 121.6696888 -9.63322954 109.82733509 -9.65452319 97.98488289 C-9.67213439 87.8165761 -9.67814134 77.64830713 -9.67488545 67.47998565 C-9.67307181 61.40722324 -9.67571702 55.33454556 -9.68959999 49.26179695 C-9.70216593 43.55149546 -9.70024579 37.84137924 -9.6871891 32.13108063 C-9.68482116 30.03607814 -9.68756579 27.94106266 -9.69581223 25.84607506 C-9.70626267 22.98472296 -9.69819251 20.12399449 -9.6855011 17.26266479 C-9.69287538 16.43502973 -9.70024967 15.60739466 -9.70784742 14.75467974 C-9.65888276 9.50186854 -8.80251319 5.80230788 -6.3112793 1.14717102 C-3.97687874 -0.02002926 -2.60104552 0.01408862 0 0 Z " fill="#000000" transform="translate(40.311279296875,232.8528289794922)"/>
<path d="M0 0 C0.66 -0.0103125 1.32 -0.020625 2 -0.03125 C4.99643542 0.76467816 6.12828144 2.0441145 8 4.5 C8.87109375 7.8203125 8.87109375 7.8203125 9.4375 11.625 C11.19091397 21.77220802 14.66895392 30.10031627 23 36.5 C29.74541303 41.00922874 36.78152139 42.45310123 44.6796875 43.62890625 C48.35514111 44.59317232 49.76813143 45.46004109 52 48.5 C52.53125 50.5 52.53125 50.5 52.5 52.5 C52.51546875 53.49 52.51546875 53.49 52.53125 54.5 C51.73532184 57.49643542 50.4558855 58.62828144 48 60.5 C44.6796875 61.37109375 44.6796875 61.37109375 40.875 61.9375 C30.72779198 63.69091397 22.39968373 67.16895392 16 75.5 C11.49077126 82.24541303 10.04689877 89.28152139 8.87109375 97.1796875 C7.90682768 100.85514111 7.03995891 102.26813143 4 104.5 C2 105.03125 2 105.03125 0 105 C-0.99 105.01546875 -0.99 105.01546875 -2 105.03125 C-4.99643542 104.23532184 -6.12828144 102.9558855 -8 100.5 C-8.87109375 97.1796875 -8.87109375 97.1796875 -9.4375 93.375 C-11.19091397 83.22779198 -14.66895392 74.89968373 -23 68.5 C-29.74541303 63.99077126 -36.78152139 62.54689877 -44.6796875 61.37109375 C-48.35514111 60.40682768 -49.76813143 59.53995891 -52 56.5 C-52.53125 54.5 -52.53125 54.5 -52.5 52.5 C-52.5103125 51.84 -52.520625 51.18 -52.53125 50.5 C-51.73532184 47.50356458 -50.4558855 46.37171856 -48 44.5 C-44.6796875 43.62890625 -44.6796875 43.62890625 -40.875 43.0625 C-30.72779198 41.30908603 -22.39968373 37.83104608 -16 29.5 C-11.49077126 22.75458697 -10.04689877 15.71847861 -8.87109375 7.8203125 C-7.58959359 2.93567062 -5.28804581 -0.08262572 0 0 Z " fill="#000000" transform="translate(416,43.5)"/>
<path d="M0 0 C0.66 -0.0103125 1.32 -0.020625 2 -0.03125 C4.99643542 0.76467816 6.12828144 2.0441145 8 4.5 C8.87109375 7.8203125 8.87109375 7.8203125 9.4375 11.625 C11.19091397 21.77220802 14.66895392 30.10031627 23 36.5 C29.74541303 41.00922874 36.78152139 42.45310123 44.6796875 43.62890625 C48.35514111 44.59317232 49.76813143 45.46004109 52 48.5 C52.53125 50.5 52.53125 50.5 52.5 52.5 C52.51546875 53.49 52.51546875 53.49 52.53125 54.5 C51.73532184 57.49643542 50.4558855 58.62828144 48 60.5 C44.6796875 61.37109375 44.6796875 61.37109375 40.875 61.9375 C30.72779198 63.69091397 22.39968373 67.16895392 16 75.5 C11.49077126 82.24541303 10.04689877 89.28152139 8.87109375 97.1796875 C7.90682768 100.85514111 7.03995891 102.26813143 4 104.5 C2 105.03125 2 105.03125 0 105 C-0.99 105.01546875 -0.99 105.01546875 -2 105.03125 C-4.99643542 104.23532184 -6.12828144 102.9558855 -8 100.5 C-8.87109375 97.1796875 -8.87109375 97.1796875 -9.4375 93.375 C-11.19091397 83.22779198 -14.66895392 74.89968373 -23 68.5 C-29.74541303 63.99077126 -36.78152139 62.54689877 -44.6796875 61.37109375 C-48.35514111 60.40682768 -49.76813143 59.53995891 -52 56.5 C-52.53125 54.5 -52.53125 54.5 -52.5 52.5 C-52.5103125 51.84 -52.520625 51.18 -52.53125 50.5 C-51.73532184 47.50356458 -50.4558855 46.37171856 -48 44.5 C-44.6796875 43.62890625 -44.6796875 43.62890625 -40.875 43.0625 C-30.72779198 41.30908603 -22.39968373 37.83104608 -16 29.5 C-11.49077126 22.75458697 -10.04689877 15.71847861 -8.87109375 7.8203125 C-7.58959359 2.93567062 -5.28804581 -0.08262572 0 0 Z " fill="#000000" transform="translate(144,43.5)"/>
</svg>
